<svg width="120" height="38" viewBox="0 0 165 36" fill="none" xmlns="http://www.w3.org/2000/svg">
<path d="M17.0312 1.59375C17.0938 1.78125 17.125 1.90625 17.125 1.96875C17.1667 2.03125 17.2448 2.11979 17.3594 2.23438C17.474 2.34896 17.5625 2.40625 17.625 2.40625C17.8646 2.40625 18.0052 2.41667 18.0469 2.4375C18.0677 2.44792 18.0833 2.45833 18.0938 2.46875C18.1146 2.47917 18.1354 2.48958 18.1562 2.5C18.1562 2.72917 18.1667 2.85417 18.1875 2.875C18.2188 2.90625 18.2396 2.9375 18.25 2.96875C18.25 3.08333 18.2292 3.22917 18.1875 3.40625C18.1354 3.58333 18.0625 3.75 17.9688 3.90625L17.6562 4.40625C17.5521 4.57292 17.4427 4.72917 17.3281 4.875L17 5.3125C16.9062 5.42708 16.8333 5.56771 16.7812 5.73438C16.7292 5.88021 16.625 6.01042 16.4688 6.125C16.3229 6.22917 16.1771 6.33333 16.0312 6.4375C15.8854 6.54167 15.75 6.65625 15.625 6.78125L15.25 7.25C15.2083 7.35417 15.151 7.44271 15.0781 7.51562C15.026 7.56771 14.9688 7.64583 14.9062 7.75C14.7917 7.91667 14.6927 8.10417 14.6094 8.3125C14.526 8.51042 14.3854 8.67708 14.1875 8.8125C13.875 9.36458 13.5417 9.84375 13.1875 10.25C12.7917 10.7083 12.4375 11.1771 12.125 11.6562C12.3854 11.6771 12.6198 11.6719 12.8281 11.6406C12.9427 11.6198 13.0677 11.6042 13.2031 11.5938C13.3385 11.5833 13.4792 11.5729 13.625 11.5625C14.25 11.5208 14.8333 11.4896 15.375 11.4688C15.9167 11.4479 16.4583 11.4375 17 11.4375C17.1667 11.5625 17.2188 11.7188 17.1562 11.9062C17.0521 11.9062 16.974 11.9323 16.9219 11.9844C16.8698 12.0365 16.7917 12.0417 16.6875 12C16.5938 12.0521 16.5417 12.1042 16.5312 12.1562C16.5208 12.2083 16.4896 12.2604 16.4375 12.3125C16.3125 12.6771 16.0365 12.8698 15.6094 12.8906C15.401 12.901 15.1979 12.9115 15 12.9219C14.8021 12.9323 14.6146 12.9479 14.4375 12.9688C14.2188 12.9792 14.099 12.9948 14.0781 13.0156C14.0677 13.026 14.0521 13.0312 14.0312 13.0312L12.8906 13.1719C12.6927 13.1927 12.5 13.2188 12.3125 13.25C12.125 13.2708 11.9375 13.2917 11.75 13.3125C11.6354 13.3958 11.5156 13.4219 11.3906 13.3906C11.2448 13.3594 11.125 13.3646 11.0312 13.4062C10.9583 13.4583 10.9167 13.5104 10.9062 13.5625C10.8958 13.625 10.8646 13.6875 10.8125 13.75C10.7188 13.8646 10.625 14 10.5312 14.1562C10.4375 14.3125 10.3438 14.4479 10.25 14.5625C10.0521 14.7604 9.86458 15.0104 9.6875 15.3125C9.59375 15.3854 9.52604 15.4583 9.48438 15.5312C9.43229 15.625 9.375 15.7083 9.3125 15.7812C8.98958 16.2292 8.625 16.6979 8.21875 17.1875C8.16667 17.2812 8.10938 17.375 8.04688 17.4688C7.99479 17.5625 7.94271 17.651 7.89062 17.7344L7.53125 18.3125C7.40625 18.5521 7.30208 18.8125 7.21875 19.0938C7.14583 19.2812 7.07812 19.4219 7.01562 19.5156C6.97396 19.5677 6.9375 19.6302 6.90625 19.7031C6.88542 19.7656 6.86458 19.8333 6.84375 19.9062C6.73958 20.0729 6.63542 20.25 6.53125 20.4375C6.42708 20.625 6.32292 20.8229 6.21875 21.0312C5.94792 21.4479 5.66146 21.8906 5.35938 22.3594C5.05729 22.8281 4.77083 23.3125 4.5 23.8125C4.45833 23.875 4.41667 23.9375 4.375 24C4.34375 24.0625 4.3125 24.1302 4.28125 24.2031C4.21875 24.3385 4.13542 24.4583 4.03125 24.5625C3.96875 24.6458 3.90104 24.7083 3.82812 24.75C3.78646 24.7708 3.75 24.7917 3.71875 24.8125C3.6875 24.8333 3.65625 24.8542 3.625 24.875C3.45833 25 3.26042 25.1354 3.03125 25.2812C2.80208 25.4271 2.60417 25.5521 2.4375 25.6562C2.20833 25.7396 2.05208 25.8438 1.96875 25.9688C1.88542 26.0938 1.82292 26.2292 1.78125 26.375C1.46875 26.5208 1.25 26.5208 1.125 26.375C1 26.2292 0.947917 26.0938 0.96875 25.9688C0.96875 25.8854 1.02604 25.7708 1.14062 25.625C1.19271 25.5521 1.23958 25.4844 1.28125 25.4219C1.32292 25.3698 1.35417 25.3229 1.375 25.2812L1.6875 24.8125C1.75 24.6458 1.79688 24.5312 1.82812 24.4688C1.85938 24.4062 1.89583 24.3438 1.9375 24.2812L2.04688 24.0938C2.07812 24.0417 2.09375 23.9792 2.09375 23.9062C2.19792 23.7917 2.28125 23.6615 2.34375 23.5156C2.375 23.4427 2.40625 23.375 2.4375 23.3125C2.47917 23.2396 2.52083 23.1667 2.5625 23.0938C2.73958 22.9167 2.88542 22.7188 3 22.5C3.11458 22.2812 3.27083 22.0729 3.46875 21.875C3.51042 21.75 3.5625 21.6458 3.625 21.5625C3.6875 21.4792 3.76042 21.3958 3.84375 21.3125C3.95833 21.0833 4.09375 20.8385 4.25 20.5781C4.38542 20.349 4.47917 20.0625 4.53125 19.7188C4.60417 19.4062 4.70833 19.1562 4.84375 18.9688C4.95833 18.8125 5.07292 18.6354 5.1875 18.4375C5.22917 18.2917 5.27083 18.1562 5.3125 18.0312C5.35417 17.9062 5.42708 17.7917 5.53125 17.6875C5.65625 17.4792 5.76042 17.2917 5.84375 17.125C5.92708 16.9583 6.02083 16.7708 6.125 16.5625C6.22917 16.2917 6.38542 16 6.59375 15.6875C6.61458 15.6562 6.63542 15.625 6.65625 15.5938C6.67708 15.5625 6.69792 15.5365 6.71875 15.5156C6.73958 15.4948 6.76042 15.4688 6.78125 15.4375C6.80208 15.3958 6.82292 15.3542 6.84375 15.3125C6.9375 15.1562 7.00521 15.0208 7.04688 14.9062C7.08854 14.7917 7.15625 14.6562 7.25 14.5C7.30208 14.4062 7.36979 14.3177 7.45312 14.2344C7.52604 14.1615 7.5625 14.0417 7.5625 13.875C7.38542 13.8333 7.21875 13.8542 7.0625 13.9375C6.9375 13.9479 6.80208 13.9635 6.65625 13.9844C6.52083 14.0052 6.36979 14.026 6.20312 14.0469C5.83854 14.099 5.51042 14.125 5.21875 14.125C5.11458 14.125 4.99479 14.1302 4.85938 14.1406C4.72396 14.151 4.59375 14.1667 4.46875 14.1875L4.15625 14.3281C4.05208 14.3698 3.94792 14.3438 3.84375 14.25C3.77083 14.1354 3.71354 14.0677 3.67188 14.0469C3.63021 14.026 3.60417 14 3.59375 13.9688C3.46875 13.7396 3.35417 13.5729 3.25 13.4688C3.22917 13.4375 3.20312 13.3802 3.17188 13.2969C3.16146 13.2448 3.11458 13.1979 3.03125 13.1562C2.96875 13.0938 2.90625 12.9792 2.84375 12.8125C3.05208 12.5417 3.33333 12.4062 3.6875 12.4062C4.14583 12.3021 4.59896 12.2135 5.04688 12.1406C5.50521 12.0677 5.95833 12.0104 6.40625 11.9688C6.85417 11.9271 7.29688 11.8802 7.73438 11.8281C8.18229 11.776 8.625 11.7188 9.0625 11.6562C9.13542 11.6042 9.18229 11.5469 9.20312 11.4844C9.23438 11.401 9.27083 11.3333 9.3125 11.2812C9.36458 11.2188 9.41667 11.1562 9.46875 11.0938C9.53125 11.0312 9.58854 10.974 9.64062 10.9219C9.75521 10.8073 9.84375 10.6667 9.90625 10.5C10 10.4479 10.0521 10.3958 10.0625 10.3438C10.0729 10.2917 10.1146 10.2396 10.1875 10.1875C10.2708 10.0729 10.3177 9.97917 10.3281 9.90625C10.349 9.8125 10.375 9.75 10.4062 9.71875C10.6562 9.39583 10.8125 9.17188 10.875 9.04688C10.9583 8.90104 11.0521 8.76042 11.1562 8.625C11.2083 8.55208 11.2604 8.48438 11.3125 8.42188C11.3646 8.34896 11.4167 8.28646 11.4688 8.23438C11.5208 8.18229 11.5729 8.125 11.625 8.0625C11.6771 8 11.7292 7.9375 11.7812 7.875C11.8229 7.82292 11.8594 7.77604 11.8906 7.73438C11.9323 7.69271 11.9688 7.65104 12 7.60938L12.1875 7.375C12.3542 7.09375 12.5729 6.79167 12.8438 6.46875C13.0729 6.20833 13.2604 5.91667 13.4062 5.59375C13.5312 5.58333 13.6094 5.52604 13.6406 5.42188C13.6719 5.33854 13.7292 5.26042 13.8125 5.1875C13.9167 4.94792 14.0417 4.72396 14.1875 4.51562C14.3333 4.30729 14.4583 4.08333 14.5625 3.84375C14.4479 3.82292 14.3229 3.84375 14.1875 3.90625C14.0521 3.96875 13.8958 4 13.7188 4C13.6146 4.02083 13.5208 4.04167 13.4375 4.0625C13.3542 4.08333 13.2812 4.10417 13.2188 4.125C13.1562 4.14583 13.0885 4.16667 13.0156 4.1875C12.9427 4.20833 12.8646 4.22917 12.7812 4.25C12.4688 4.29167 12.1406 4.38542 11.7969 4.53125C11.6302 4.60417 11.4635 4.67188 11.2969 4.73438C11.1302 4.78646 10.9688 4.83333 10.8125 4.875C10.4167 4.91667 10.0312 4.95833 9.65625 5C9.28125 5.04167 8.91667 5.08333 8.5625 5.125C8.20833 5.16667 7.84896 5.20833 7.48438 5.25C7.13021 5.28125 6.77083 5.3125 6.40625 5.34375C6.32292 5.35417 6.23958 5.36458 6.15625 5.375C6.07292 5.38542 5.98958 5.39583 5.90625 5.40625C5.82292 5.41667 5.73958 5.42708 5.65625 5.4375C5.57292 5.4375 5.48958 5.4375 5.40625 5.4375C5.07292 5.4375 4.73958 5.46875 4.40625 5.53125C4.30208 5.51042 4.20833 5.51042 4.125 5.53125C4.05208 5.54167 3.95833 5.54167 3.84375 5.53125C3.59375 5.44792 3.4375 5.38542 3.375 5.34375C3.32292 5.30208 3.23958 5.28125 3.125 5.28125C3.02083 5.21875 2.95833 5.17708 2.9375 5.15625C2.89583 5.11458 2.85417 5.09375 2.8125 5.09375C2.66667 4.90625 2.58333 4.78646 2.5625 4.73438C2.54167 4.68229 2.60417 4.61458 2.75 4.53125C2.83333 4.32292 3.00521 4.19792 3.26562 4.15625C3.51562 4.11458 3.72917 4.05208 3.90625 3.96875C4.05208 3.9375 4.19792 3.90625 4.34375 3.875C4.48958 3.84375 4.63021 3.81771 4.76562 3.79688C4.91146 3.77604 5.05729 3.75 5.20312 3.71875C5.34896 3.6875 5.5 3.65625 5.65625 3.625C5.82292 3.57292 5.96875 3.53646 6.09375 3.51562C6.22917 3.48438 6.34375 3.46354 6.4375 3.45312C6.61458 3.44271 6.79167 3.39583 6.96875 3.3125C7.28125 3.29167 7.57812 3.24479 7.85938 3.17188C8.00521 3.13021 8.14583 3.09375 8.28125 3.0625C8.42708 3.03125 8.57292 3 8.71875 2.96875C8.77083 2.9375 8.85938 2.91146 8.98438 2.89062C9.08854 2.86979 9.16667 2.83333 9.21875 2.78125C9.44792 2.78125 9.5625 2.76042 9.5625 2.71875C10.0938 2.61458 10.6146 2.50521 11.125 2.39062C11.6458 2.26562 12.1562 2.13542 12.6562 2C13.6562 1.72917 14.7083 1.54167 15.8125 1.4375C16.2708 1.38542 16.6771 1.4375 17.0312 1.59375ZM21.2812 23.7812L21.0938 23.0938C20.9688 22.8333 20.9479 22.4271 21.0312 21.875L21.1406 21.3281C21.1615 21.2552 21.1771 21.1615 21.1875 21.0469C21.2083 20.9323 21.2292 20.7917 21.25 20.625C21.2708 20.4688 21.2917 20.3125 21.3125 20.1562C21.3438 19.9896 21.3802 19.8229 21.4219 19.6562C21.4635 19.4896 21.4948 19.3229 21.5156 19.1562C21.5469 18.9896 21.5729 18.8229 21.5938 18.6562C21.4375 18.8958 21.2865 19.1406 21.1406 19.3906C20.9948 19.6406 20.8542 19.901 20.7188 20.1719C20.4583 20.6823 20.1354 21.125 19.75 21.5C19.6667 21.75 19.5625 21.9115 19.4375 21.9844C19.3125 22.0469 19.1875 22.1094 19.0625 22.1719C18.9375 22.2344 18.8333 22.3854 18.75 22.625C18.6458 22.7292 18.5469 22.8385 18.4531 22.9531C18.3594 23.0677 18.2917 23.2083 18.25 23.375C18.1458 23.4167 18.0417 23.5 17.9375 23.625C17.7396 23.8229 17.6146 23.9271 17.5625 23.9375C17.5104 23.9479 17.4583 23.9792 17.4062 24.0312C17.1979 24.1979 17.0156 24.3229 16.8594 24.4062C16.7031 24.4896 16.5208 24.5417 16.3125 24.5625C16.0833 24.6042 15.7865 24.6354 15.4219 24.6562C15.2448 24.6667 15.0833 24.6771 14.9375 24.6875C14.7917 24.6979 14.6667 24.7083 14.5625 24.7188C14.4271 24.6146 14.3229 24.5521 14.25 24.5312C14.2188 24.5208 14.1719 24.5052 14.1094 24.4844C14.0573 24.4635 13.9896 24.4375 13.9062 24.4062C13.6042 24.2812 13.4583 24.224 13.4688 24.2344C13.4583 24.224 13.4427 24.2135 13.4219 24.2031C13.3906 24.1927 13.3542 24.1771 13.3125 24.1562C13.1458 24.0312 13.0312 23.9323 12.9688 23.8594C12.9271 23.8073 12.8542 23.7292 12.75 23.625C12.4062 23.0938 12.2083 22.4062 12.1562 21.5625C12.1354 21.2708 12.1875 20.9792 12.3125 20.6875C12.4375 20.3958 12.5521 20.1354 12.6562 19.9062C12.7812 19.6458 12.9167 19.4062 13.0625 19.1875C13.1458 19.0625 13.224 18.9427 13.2969 18.8281C13.3594 18.7135 13.4167 18.6042 13.4688 18.5C13.5938 18.25 13.6146 18.0885 13.5312 18.0156C13.4583 17.9323 13.4792 17.7708 13.5938 17.5312C13.6458 17.3646 13.7083 17.2188 13.7812 17.0938L14.0625 16.5938C14.25 16.2604 14.4479 15.9635 14.6562 15.7031C14.8438 15.474 15 15.1667 15.125 14.7812C15.2292 14.4896 15.3698 14.2656 15.5469 14.1094C15.724 13.9531 15.9375 13.8125 16.1875 13.6875C16.2917 13.7292 16.4427 13.7135 16.6406 13.6406C16.8385 13.5677 16.9896 13.4896 17.0938 13.4062C17.2396 13.4062 17.3542 13.3646 17.4375 13.2812C17.6667 13.2396 17.7865 13.2396 17.7969 13.2812C17.8073 13.3229 17.8333 13.3438 17.875 13.3438C17.9167 13.3542 17.974 13.3542 18.0469 13.3438C18.1198 13.3333 18.1771 13.3333 18.2188 13.3438C18.2917 13.5625 18.3438 13.6979 18.375 13.75C18.4167 13.8021 18.4375 13.8542 18.4375 13.9062C18.4375 13.9688 18.4323 14.0521 18.4219 14.1562C18.4115 14.2604 18.3958 14.3333 18.375 14.375C18.2604 14.5312 18.1927 14.6302 18.1719 14.6719L18.125 14.7812C18.0625 14.8646 17.9896 14.9635 17.9062 15.0781C17.8333 15.1823 17.75 15.3073 17.6562 15.4531L17.1562 16.1875C17.0417 16.3646 16.9375 16.4792 16.8438 16.5312C16.7292 16.5938 16.6354 16.7083 16.5625 16.875C16.5208 16.9479 16.4896 17.026 16.4688 17.1094C16.4583 17.1823 16.4271 17.2604 16.375 17.3438C16.1354 17.8438 15.8646 18.349 15.5625 18.8594C15.4062 19.1198 15.2552 19.3802 15.1094 19.6406C14.974 19.8906 14.8438 20.1354 14.7188 20.375C14.7083 20.4583 14.6927 20.5417 14.6719 20.625C14.651 20.6979 14.6302 20.776 14.6094 20.8594C14.5573 21.0365 14.5312 21.1875 14.5312 21.3125C14.5312 21.3438 14.5208 21.5052 14.5 21.7969C14.4792 22.0885 14.4896 22.2604 14.5312 22.3125C14.6562 22.4896 14.7292 22.5677 14.75 22.5469C14.7708 22.526 14.7917 22.5312 14.8125 22.5625C14.8958 22.7708 14.9531 22.8906 14.9844 22.9219C15.0156 22.9531 15.0833 22.9896 15.1875 23.0312C15.2708 23.0521 15.3906 23.0365 15.5469 22.9844C15.7031 22.9323 15.8229 22.8854 15.9062 22.8438C16.1562 22.7188 16.3438 22.5885 16.4688 22.4531C16.5938 22.3177 16.7188 22.1771 16.8438 22.0312C17.1562 21.6562 17.4896 21.2188 17.8438 20.7188C18.1979 20.2188 18.5312 19.7812 18.8438 19.4062C18.9583 19.1562 19.1094 18.9062 19.2969 18.6562C19.4948 18.3854 19.6458 18.1458 19.75 17.9375L20.1875 17.0938C20.25 16.9792 20.3177 16.8542 20.3906 16.7188C20.4635 16.5833 20.5417 16.4375 20.625 16.2812C20.75 16.1042 20.8802 15.9427 21.0156 15.7969C21.151 15.651 21.25 15.4375 21.3125 15.1562C21.3646 15.0104 21.4427 14.8698 21.5469 14.7344C21.599 14.6615 21.6458 14.599 21.6875 14.5469C21.7396 14.4844 21.7812 14.4271 21.8125 14.375C21.9688 14.2292 22.0677 14.1146 22.1094 14.0312C22.151 13.9479 22.2188 13.875 22.3125 13.8125C22.5417 13.75 22.7188 13.7031 22.8438 13.6719C22.9688 13.6406 23.125 13.6458 23.3125 13.6875C23.4792 13.5833 23.6562 13.5312 23.8438 13.5312C23.9375 13.5312 24.026 13.5365 24.1094 13.5469C24.2031 13.5469 24.2917 13.5521 24.375 13.5625C24.375 13.6667 24.401 13.7344 24.4531 13.7656C24.5052 13.7969 24.5312 13.8542 24.5312 13.9375C24.6146 14.125 24.6146 14.3542 24.5312 14.625C24.4375 14.9271 24.3854 15.1979 24.375 15.4375C24.3229 15.6562 24.2448 15.849 24.1406 16.0156C24.026 16.2031 23.9375 16.4062 23.875 16.625C23.8333 16.7812 23.7969 16.9062 23.7656 17C23.7448 17.0938 23.7292 17.1562 23.7188 17.1875L23.625 17.5312C23.5833 17.7188 23.5417 17.901 23.5 18.0781C23.4583 18.2448 23.4167 18.4115 23.375 18.5781C23.2917 18.9115 23.2292 19.2812 23.1875 19.6875C23.1875 19.7917 23.1719 19.901 23.1406 20.0156C23.1094 20.1198 23.0938 20.2188 23.0938 20.3125C23.0938 20.4167 23.099 20.5417 23.1094 20.6875C23.1198 20.8333 23.1771 20.9271 23.2812 20.9688C23.3958 21.0104 23.4948 21 23.5781 20.9375C23.6823 20.8542 23.7917 20.7812 23.9062 20.7188C23.9792 20.6667 24.0833 20.5729 24.2188 20.4375C24.3542 20.3021 24.4583 20.2083 24.5312 20.1562C24.6354 20.0521 24.75 19.9688 24.875 19.9062C25 19.8438 25.1146 19.7604 25.2188 19.6562C25.3854 19.5104 25.5469 19.3646 25.7031 19.2188C25.8698 19.0625 26.026 18.9062 26.1719 18.75C26.4844 18.4271 26.8125 18.1667 27.1562 17.9688C27.4896 17.6146 27.8281 17.2865 28.1719 16.9844C28.5156 16.6823 28.9062 16.4271 29.3438 16.2188C29.5104 16.4896 29.5521 16.7135 29.4688 16.8906C29.3854 17.0677 29.2812 17.2396 29.1562 17.4062C29.1042 17.4583 29.0312 17.5104 28.9375 17.5625C28.8229 17.625 28.7396 17.6771 28.6875 17.7188L28.5312 17.875C28.4688 17.9375 28.4167 17.9688 28.375 17.9688C28.375 18.0521 28.349 18.1198 28.2969 18.1719L28.1562 18.3125C28.0208 18.5208 27.875 18.7188 27.7188 18.9062C27.5729 19.0833 27.4167 19.2552 27.25 19.4219C27.0833 19.5885 26.9167 19.7552 26.75 19.9219C26.5938 20.0781 26.4375 20.2396 26.2812 20.4062C26.1354 20.4583 26.0469 20.526 26.0156 20.6094C25.9844 20.7135 25.9167 20.8021 25.8125 20.875C25.7708 20.9271 25.7292 20.974 25.6875 21.0156C25.6458 21.0573 25.6042 21.099 25.5625 21.1406C25.5208 21.1823 25.4792 21.224 25.4375 21.2656C25.3958 21.3073 25.3542 21.3542 25.3125 21.4062C25.1875 21.5417 25.0781 21.6823 24.9844 21.8281C24.8906 21.9635 24.7604 22.0938 24.5938 22.2188C24.4896 22.3229 24.4115 22.4323 24.3594 22.5469C24.3177 22.651 24.2396 22.7604 24.125 22.875C23.9583 23.0417 23.8385 23.1198 23.7656 23.1094C23.7031 23.099 23.6458 23.1979 23.5938 23.4062C23.4271 23.5312 23.3333 23.6198 23.3125 23.6719C23.3021 23.7135 23.2708 23.7292 23.2188 23.7188C23.1667 23.7396 23.0938 23.7552 23 23.7656C22.8958 23.776 22.8438 23.8021 22.8438 23.8438C22.7083 23.9062 22.599 23.9688 22.5156 24.0312C22.4323 24.1042 22.3333 24.1458 22.2188 24.1562C21.9479 24.1979 21.7552 24.1823 21.6406 24.1094C21.526 24.0365 21.4062 23.9271 21.2812 23.7812ZM36.8125 6.75C37.2708 6.82292 37.6667 6.86979 38 6.89062C38.3438 6.91146 38.7188 6.88542 39.125 6.8125L40.3594 6.64062C40.6927 6.59896 41.0938 6.55208 41.5625 6.5C41.6875 6.48958 41.8177 6.48958 41.9531 6.5C42.026 6.51042 42.0938 6.52083 42.1562 6.53125C42.2188 6.53125 42.2812 6.53125 42.3438 6.53125C42.6146 6.53125 42.8802 6.52083 43.1406 6.5C43.401 6.47917 43.6458 6.45833 43.875 6.4375C43.9167 6.42708 43.9531 6.41667 43.9844 6.40625C44.026 6.39583 44.0625 6.38542 44.0938 6.375C44.1562 6.35417 44.2188 6.35417 44.2812 6.375C44.375 6.375 44.4688 6.375 44.5625 6.375C44.6562 6.375 44.75 6.36979 44.8438 6.35938C45.0312 6.34896 45.1979 6.41667 45.3438 6.5625C45.4062 6.77083 45.4271 6.88542 45.4062 6.90625C45.375 6.9375 45.3542 6.96875 45.3438 7C45.3229 7.27083 45.2865 7.40625 45.2344 7.40625C45.1823 7.40625 45.1562 7.42708 45.1562 7.46875C44.9896 7.51042 44.849 7.54688 44.7344 7.57812C44.6198 7.60938 44.5312 7.67708 44.4688 7.78125C44.1146 7.85417 43.7865 7.86979 43.4844 7.82812C43.1823 7.77604 42.875 7.82292 42.5625 7.96875C42.4062 8.04167 42.2552 8.11979 42.1094 8.20312C41.9635 8.29688 41.7708 8.30208 41.5312 8.21875C41.3229 8.21875 41.0833 8.22917 40.8125 8.25C40.5417 8.27083 40.2812 8.29167 40.0312 8.3125C39.6771 8.34375 39.276 8.38021 38.8281 8.42188C38.3906 8.45312 38.0521 8.47396 37.8125 8.48438C37.5833 8.49479 37.2552 8.51042 36.8281 8.53125C36.401 8.55208 36.0208 8.5625 35.6875 8.5625C35.5208 8.69792 35.4115 8.875 35.3594 9.09375C35.3073 9.30208 35.1979 9.46875 35.0312 9.59375C34.8438 10.0104 34.7083 10.276 34.625 10.3906C34.5312 10.5156 34.4583 10.6771 34.4062 10.875C34.1146 11.25 33.849 11.6406 33.6094 12.0469C33.3906 12.4219 33.1146 12.8021 32.7812 13.1875C32.7396 13.4167 32.6615 13.6198 32.5469 13.7969C32.4427 13.9635 32.3646 14.1979 32.3125 14.5C32.0938 14.7917 31.9271 15.1354 31.8125 15.5312C31.7604 15.7188 31.6979 15.9115 31.625 16.1094C31.5625 16.3073 31.4896 16.5104 31.4062 16.7188C31.3646 16.8854 31.3177 17.0469 31.2656 17.2031C31.2135 17.3594 31.1562 17.5208 31.0938 17.6875C31.0208 17.875 30.9219 18.0677 30.7969 18.2656C30.7448 18.349 30.6875 18.4427 30.625 18.5469C30.5729 18.6406 30.5208 18.7396 30.4688 18.8438C30.4271 18.8854 30.4062 18.9427 30.4062 19.0156C30.4062 19.0677 30.3958 19.125 30.375 19.1875C30.3438 19.2604 30.3125 19.3333 30.2812 19.4062C30.25 19.4688 30.2188 19.526 30.1875 19.5781C30.1458 19.651 30.0938 19.7604 30.0312 19.9062C30 19.9792 29.974 20.0885 29.9531 20.2344C29.9323 20.3802 29.9062 20.4896 29.875 20.5625C29.8646 20.5938 29.8542 20.625 29.8438 20.6562C29.8333 20.6875 29.8229 20.7135 29.8125 20.7344C29.8021 20.7552 29.7917 20.7812 29.7812 20.8125C29.7708 20.8438 29.7604 20.875 29.75 20.9062C29.6875 21.1979 29.6875 21.3958 29.75 21.5C29.8125 21.6042 29.8646 21.7083 29.9062 21.8125C29.9271 21.875 29.9479 21.9323 29.9688 21.9844C29.9896 22.0365 30.0104 22.0885 30.0312 22.1406C30.0833 22.2344 30.1146 22.3333 30.125 22.4375C30.1771 22.4583 30.2292 22.4792 30.2812 22.5C30.3333 22.5208 30.3802 22.5417 30.4219 22.5625C30.5052 22.6042 30.6042 22.625 30.7188 22.625C30.8542 22.6458 30.9896 22.5885 31.125 22.4531C31.2708 22.3073 31.3958 22.2292 31.5 22.2188C31.625 22.1771 31.7656 22.1562 31.9219 22.1562C32.0573 22.1562 32.1771 22.125 32.2812 22.0625C32.3438 22.0104 32.401 21.9583 32.4531 21.9062C32.5052 21.8542 32.5521 21.8021 32.5938 21.75C32.6562 21.6562 32.7708 21.5833 32.9375 21.5312C33.2708 21.4479 33.4479 21.3802 33.4688 21.3281C33.4792 21.2865 33.5521 21.2083 33.6875 21.0938C33.7604 21.0417 33.8281 20.9896 33.8906 20.9375C33.9635 20.8854 34.026 20.8385 34.0781 20.7969C34.1615 20.724 34.3021 20.625 34.5 20.5C34.7083 20.3958 34.8281 20.3333 34.8594 20.3125C34.8906 20.2917 34.9792 20.2188 35.125 20.0938C35.2292 20.0417 35.3229 19.9896 35.4062 19.9375C35.5 19.875 35.5833 19.8125 35.6562 19.75C35.7708 19.6458 35.9375 19.5312 36.1562 19.4062C36.4062 19.3021 36.5417 19.2396 36.5625 19.2188C36.5938 19.1875 36.6146 19.151 36.625 19.1094C36.6354 19.0677 36.75 18.9792 36.9688 18.8438C37.0417 18.6875 37.1354 18.5521 37.25 18.4375C37.3021 18.3854 37.3594 18.3281 37.4219 18.2656C37.4844 18.1927 37.5521 18.1146 37.625 18.0312C37.7604 17.875 37.8906 17.75 38.0156 17.6562C38.1615 17.5417 38.2812 17.4375 38.375 17.3438C38.4167 17.3125 38.4688 17.2656 38.5312 17.2031C38.5938 17.1406 38.6667 17.1042 38.75 17.0938C38.8125 17.0417 38.8646 16.9948 38.9062 16.9531C38.9583 16.9115 39.0052 16.8698 39.0469 16.8281C39.0885 16.7865 39.1354 16.7396 39.1875 16.6875C39.25 16.6354 39.3229 16.5729 39.4062 16.5L39.5625 16.3438C39.6354 16.2708 39.6875 16.2292 39.7188 16.2188C39.8125 16.2188 39.8802 16.25 39.9219 16.3125C39.974 16.375 40.0417 16.4062 40.125 16.4062C40.1146 16.5417 40.1042 16.651 40.0938 16.7344C40.0938 16.8177 40.0938 16.8802 40.0938 16.9219C40.0938 17.0052 40.0729 17.0833 40.0312 17.1562C39.9062 17.3542 39.7656 17.4583 39.6094 17.4688C39.4531 17.4896 39.3333 17.6042 39.25 17.8125C39.1875 17.7708 39.1094 17.7604 39.0156 17.7812C38.9219 17.8021 38.8542 17.8333 38.8125 17.875C38.8542 17.9479 38.875 18.0208 38.875 18.0938C38.875 18.1354 38.8854 18.2083 38.9062 18.3125C38.5208 18.6979 38.2708 19 38.1562 19.2188C37.8958 19.4896 37.7604 19.6406 37.75 19.6719L37.7188 19.7188L37.4688 19.9688C37.1771 20.1979 36.9583 20.4167 36.8125 20.625C36.6771 20.8229 36.4583 21.0104 36.1562 21.1875C35.9271 21.3542 35.7708 21.4792 35.6875 21.5625C35.6458 21.6042 35.5938 21.6562 35.5312 21.7188C35.4688 21.7708 35.3958 21.8333 35.3125 21.9062C35.2604 21.9583 35.1823 22.0469 35.0781 22.1719C34.974 22.2969 34.8854 22.3854 34.8125 22.4375C34.6771 22.5417 34.5365 22.6354 34.3906 22.7188C34.276 22.7812 34.1562 22.8854 34.0312 23.0312C33.7292 23.1667 33.5052 23.3333 33.3594 23.5312C33.224 23.7083 33.0208 23.8854 32.75 24.0625C32.5625 24.1875 32.3073 24.3438 31.9844 24.5312C31.6615 24.7188 31.3854 24.8542 31.1562 24.9375C31.125 24.9479 31.0938 24.9583 31.0625 24.9688C31.0312 24.9792 31.0052 24.9896 30.9844 25C30.9635 25.0104 30.9375 25.0208 30.9062 25.0312C30.875 25.0417 30.8438 25.0521 30.8125 25.0625C30.6458 24.9583 30.4844 24.8542 30.3281 24.75C30.1719 24.6458 30.0417 24.5 29.9375 24.3125C29.7396 24.1667 29.5885 24.0625 29.4844 24C29.3594 23.9271 29.25 23.8438 29.1562 23.75C29.0521 23.5729 28.9427 23.3958 28.8281 23.2188C28.7135 23.0417 28.5885 22.8646 28.4531 22.6875C28.1823 22.3229 27.9792 21.9271 27.8438 21.5C27.8125 21.4479 27.7865 21.3594 27.7656 21.2344L27.7188 20.9375C27.6979 20.8542 27.6771 20.776 27.6562 20.7031C27.6354 20.6302 27.6146 20.5625 27.5938 20.5C27.5521 20.3958 27.5417 20.2396 27.5625 20.0312C27.5625 19.8854 27.5833 19.75 27.625 19.625C27.6458 19.5521 27.6667 19.4792 27.6875 19.4062C27.7083 19.3229 27.7292 19.2396 27.75 19.1562C27.7917 19.0208 27.8385 18.8906 27.8906 18.7656C27.9427 18.6302 27.9948 18.5 28.0469 18.375C28.1719 18.0938 28.2604 17.8229 28.3125 17.5625C28.4375 17.125 28.5729 16.7083 28.7188 16.3125C28.75 16.2396 28.776 16.1406 28.7969 16.0156C28.8073 15.9219 28.8646 15.8542 28.9688 15.8125C29.0521 15.3958 29.1875 14.9948 29.375 14.6094C29.5625 14.224 29.75 13.8542 29.9375 13.5C30.0521 13.2812 30.1615 13.0625 30.2656 12.8438C30.3698 12.6146 30.474 12.3854 30.5781 12.1562C30.6823 11.9271 30.7865 11.7031 30.8906 11.4844C30.9948 11.2552 31.1042 11.0312 31.2188 10.8125C31.2292 10.5833 31.3125 10.375 31.4688 10.1875C31.4792 9.97917 31.5625 9.75521 31.7188 9.51562C31.875 9.27604 31.9792 9.05208 32.0312 8.84375C31.8021 8.78125 31.5469 8.77604 31.2656 8.82812C30.9844 8.88021 30.7396 8.92708 30.5312 8.96875C30.1562 8.97917 29.7604 8.97917 29.3438 8.96875C29.2708 8.95833 29.1979 8.94792 29.125 8.9375C29.0625 8.91667 28.9948 8.90104 28.9219 8.89062C28.7865 8.85938 28.6562 8.84375 28.5312 8.84375C28.3438 8.85417 28.2031 8.83854 28.1094 8.79688C28.0052 8.74479 27.9062 8.73958 27.8125 8.78125C27.5208 8.53125 27.224 8.3125 26.9219 8.125C26.6094 7.9375 26.4062 7.69792 26.3125 7.40625C26.3125 7.34375 26.3438 7.29167 26.4062 7.25C26.4896 7.1875 26.5417 7.14583 26.5625 7.125C26.7396 7.07292 26.9271 7.05729 27.125 7.07812C27.3229 7.08854 27.4896 7.05208 27.625 6.96875C27.9271 7.01042 28.2344 6.98958 28.5469 6.90625C28.8281 6.82292 29.125 6.79167 29.4375 6.8125C29.4792 6.8125 29.5417 6.82292 29.625 6.84375C29.7083 6.86458 29.7708 6.875 29.8125 6.875C29.9167 6.88542 30.0052 6.88542 30.0781 6.875C30.1198 6.86458 30.1615 6.85417 30.2031 6.84375C30.2448 6.83333 30.2917 6.82292 30.3438 6.8125C30.4688 6.79167 30.6042 6.79167 30.75 6.8125C30.8958 6.83333 31.0417 6.83333 31.1875 6.8125C31.4896 6.79167 31.8177 6.81771 32.1719 6.89062C32.5573 6.96354 32.8958 6.94792 33.1875 6.84375C33.2396 6.69792 33.2917 6.55208 33.3438 6.40625C33.4062 6.25 33.474 6.09896 33.5469 5.95312C33.6927 5.65104 33.8021 5.35417 33.875 5.0625C33.9583 4.9375 34.0417 4.79688 34.125 4.64062C34.2083 4.48438 34.2708 4.33333 34.3125 4.1875L34.6094 3.6875C34.651 3.625 34.6927 3.5625 34.7344 3.5C34.776 3.4375 34.8229 3.375 34.875 3.3125C35.0208 3.01042 35.1302 2.72396 35.2031 2.45312C35.2448 2.30729 35.2865 2.16146 35.3281 2.01562C35.3802 1.85938 35.4375 1.69792 35.5 1.53125C35.6354 1.38542 35.7708 1.22396 35.9062 1.04688C36.0417 0.869792 36.1771 0.677083 36.3125 0.46875C36.4688 0.489583 36.5885 0.447917 36.6719 0.34375C36.7656 0.239583 36.9062 0.25 37.0938 0.375C37.0938 0.4375 37.1198 0.494792 37.1719 0.546875C37.224 0.598958 37.2292 0.677083 37.1875 0.78125C37.3958 0.989583 37.5312 1.17708 37.5938 1.34375C37.6354 1.51042 37.6198 1.70312 37.5469 1.92188C37.474 2.14062 37.4896 2.34375 37.5938 2.53125C37.6354 2.625 37.6458 2.72396 37.625 2.82812C37.6042 2.94271 37.6146 3.03125 37.6562 3.09375C37.7083 3.20833 37.7656 3.3125 37.8281 3.40625C37.901 3.51042 37.9375 3.64583 37.9375 3.8125C37.9375 3.875 37.9219 3.95312 37.8906 4.04688C37.8594 4.14062 37.8229 4.23958 37.7812 4.34375C37.7083 4.65625 37.6458 4.875 37.5938 5C37.5729 5.0625 37.5521 5.13021 37.5312 5.20312C37.5104 5.26562 37.4896 5.33333 37.4688 5.40625C37.3229 5.58333 37.25 5.69271 37.25 5.73438C37.25 5.76562 37.2396 5.8125 37.2188 5.875C37.1875 5.9375 37.1562 6.01042 37.125 6.09375C37.0938 6.16667 37.0573 6.24479 37.0156 6.32812C36.974 6.41146 36.9375 6.48958 36.9062 6.5625C36.875 6.63542 36.8438 6.69792 36.8125 6.75ZM44.625 23.7812L44.4375 23.0938C44.3125 22.8333 44.2917 22.4271 44.375 21.875L44.4844 21.3281C44.5052 21.2552 44.5208 21.1615 44.5312 21.0469C44.5521 20.9323 44.5729 20.7917 44.5938 20.625C44.6146 20.4688 44.6354 20.3125 44.6562 20.1562C44.6875 19.9896 44.724 19.8229 44.7656 19.6562C44.8073 19.4896 44.8385 19.3229 44.8594 19.1562C44.8906 18.9896 44.9167 18.8229 44.9375 18.6562C44.7812 18.8958 44.6302 19.1406 44.4844 19.3906C44.3385 19.6406 44.1979 19.901 44.0625 20.1719C43.8021 20.6823 43.4792 21.125 43.0938 21.5C43.0104 21.75 42.9062 21.9115 42.7812 21.9844C42.6562 22.0469 42.5312 22.1094 42.4062 22.1719C42.2812 22.2344 42.1771 22.3854 42.0938 22.625C41.9896 22.7292 41.8906 22.8385 41.7969 22.9531C41.7031 23.0677 41.6354 23.2083 41.5938 23.375C41.4896 23.4167 41.3854 23.5 41.2812 23.625C41.0833 23.8229 40.9583 23.9271 40.9062 23.9375C40.8542 23.9479 40.8021 23.9792 40.75 24.0312C40.5417 24.1979 40.3594 24.3229 40.2031 24.4062C40.0469 24.4896 39.8646 24.5417 39.6562 24.5625C39.4271 24.6042 39.1302 24.6354 38.7656 24.6562C38.5885 24.6667 38.4271 24.6771 38.2812 24.6875C38.1354 24.6979 38.0104 24.7083 37.9062 24.7188C37.7708 24.6146 37.6667 24.5521 37.5938 24.5312C37.5625 24.5208 37.5156 24.5052 37.4531 24.4844C37.401 24.4635 37.3333 24.4375 37.25 24.4062C36.9479 24.2812 36.8021 24.224 36.8125 24.2344C36.8021 24.224 36.7865 24.2135 36.7656 24.2031C36.7344 24.1927 36.6979 24.1771 36.6562 24.1562C36.4896 24.0312 36.375 23.9323 36.3125 23.8594C36.2708 23.8073 36.1979 23.7292 36.0938 23.625C35.75 23.0938 35.5521 22.4062 35.5 21.5625C35.4792 21.2708 35.5312 20.9792 35.6562 20.6875C35.7812 20.3958 35.8958 20.1354 36 19.9062C36.125 19.6458 36.2604 19.4062 36.4062 19.1875C36.4896 19.0625 36.5677 18.9427 36.6406 18.8281C36.7031 18.7135 36.7604 18.6042 36.8125 18.5C36.9375 18.25 36.9583 18.0885 36.875 18.0156C36.8021 17.9323 36.8229 17.7708 36.9375 17.5312C36.9896 17.3646 37.0521 17.2188 37.125 17.0938L37.4062 16.5938C37.5938 16.2604 37.7917 15.9635 38 15.7031C38.1875 15.474 38.3438 15.1667 38.4688 14.7812C38.5729 14.4896 38.7135 14.2656 38.8906 14.1094C39.0677 13.9531 39.2812 13.8125 39.5312 13.6875C39.6354 13.7292 39.7865 13.7135 39.9844 13.6406C40.1823 13.5677 40.3333 13.4896 40.4375 13.4062C40.5833 13.4062 40.6979 13.3646 40.7812 13.2812C41.0104 13.2396 41.1302 13.2396 41.1406 13.2812C41.151 13.3229 41.1771 13.3438 41.2188 13.3438C41.2604 13.3542 41.3177 13.3542 41.3906 13.3438C41.4635 13.3333 41.5208 13.3333 41.5625 13.3438C41.6354 13.5625 41.6875 13.6979 41.7188 13.75C41.7604 13.8021 41.7812 13.8542 41.7812 13.9062C41.7812 13.9688 41.776 14.0521 41.7656 14.1562C41.7552 14.2604 41.7396 14.3333 41.7188 14.375C41.6042 14.5312 41.5365 14.6302 41.5156 14.6719L41.4688 14.7812C41.4062 14.8646 41.3333 14.9635 41.25 15.0781C41.1771 15.1823 41.0938 15.3073 41 15.4531L40.5 16.1875C40.3854 16.3646 40.2812 16.4792 40.1875 16.5312C40.0729 16.5938 39.9792 16.7083 39.9062 16.875C39.8646 16.9479 39.8333 17.026 39.8125 17.1094C39.8021 17.1823 39.7708 17.2604 39.7188 17.3438C39.4792 17.8438 39.2083 18.349 38.9062 18.8594C38.75 19.1198 38.599 19.3802 38.4531 19.6406C38.3177 19.8906 38.1875 20.1354 38.0625 20.375C38.0521 20.4583 38.0365 20.5417 38.0156 20.625C37.9948 20.6979 37.974 20.776 37.9531 20.8594C37.901 21.0365 37.875 21.1875 37.875 21.3125C37.875 21.3438 37.8646 21.5052 37.8438 21.7969C37.8229 22.0885 37.8333 22.2604 37.875 22.3125C38 22.4896 38.0729 22.5677 38.0938 22.5469C38.1146 22.526 38.1354 22.5312 38.1562 22.5625C38.2396 22.7708 38.2969 22.8906 38.3281 22.9219C38.3594 22.9531 38.4271 22.9896 38.5312 23.0312C38.6146 23.0521 38.7344 23.0365 38.8906 22.9844C39.0469 22.9323 39.1667 22.8854 39.25 22.8438C39.5 22.7188 39.6875 22.5885 39.8125 22.4531C39.9375 22.3177 40.0625 22.1771 40.1875 22.0312C40.5 21.6562 40.8333 21.2188 41.1875 20.7188C41.5417 20.2188 41.875 19.7812 42.1875 19.4062C42.3021 19.1562 42.4531 18.9062 42.6406 18.6562C42.8385 18.3854 42.9896 18.1458 43.0938 17.9375L43.5312 17.0938C43.5938 16.9792 43.6615 16.8542 43.7344 16.7188C43.8073 16.5833 43.8854 16.4375 43.9688 16.2812C44.0938 16.1042 44.224 15.9427 44.3594 15.7969C44.4948 15.651 44.5938 15.4375 44.6562 15.1562C44.7083 15.0104 44.7865 14.8698 44.8906 14.7344C44.9427 14.6615 44.9896 14.599 45.0312 14.5469C45.0833 14.4844 45.125 14.4271 45.1562 14.375C45.3125 14.2292 45.4115 14.1146 45.4531 14.0312C45.4948 13.9479 45.5625 13.875 45.6562 13.8125C45.8854 13.75 46.0625 13.7031 46.1875 13.6719C46.3125 13.6406 46.4688 13.6458 46.6562 13.6875C46.8229 13.5833 47 13.5312 47.1875 13.5312C47.2812 13.5312 47.3698 13.5365 47.4531 13.5469C47.5469 13.5469 47.6354 13.5521 47.7188 13.5625C47.7188 13.6667 47.7448 13.7344 47.7969 13.7656C47.849 13.7969 47.875 13.8542 47.875 13.9375C47.9583 14.125 47.9583 14.3542 47.875 14.625C47.7812 14.9271 47.7292 15.1979 47.7188 15.4375C47.6667 15.6562 47.5885 15.849 47.4844 16.0156C47.3698 16.2031 47.2812 16.4062 47.2188 16.625C47.1771 16.7812 47.1406 16.9062 47.1094 17C47.0885 17.0938 47.0729 17.1562 47.0625 17.1875L46.9688 17.5312C46.9271 17.7188 46.8854 17.901 46.8438 18.0781C46.8021 18.2448 46.7604 18.4115 46.7188 18.5781C46.6354 18.9115 46.5729 19.2812 46.5312 19.6875C46.5312 19.7917 46.5156 19.901 46.4844 20.0156C46.4531 20.1198 46.4375 20.2188 46.4375 20.3125C46.4375 20.4167 46.4427 20.5417 46.4531 20.6875C46.4635 20.8333 46.5208 20.9271 46.625 20.9688C46.7396 21.0104 46.8385 21 46.9219 20.9375C47.026 20.8542 47.1354 20.7812 47.25 20.7188C47.3229 20.6667 47.4271 20.5729 47.5625 20.4375C47.6979 20.3021 47.8021 20.2083 47.875 20.1562C47.9792 20.0521 48.0938 19.9688 48.2188 19.9062C48.3438 19.8438 48.4583 19.7604 48.5625 19.6562C48.7292 19.5104 48.8906 19.3646 49.0469 19.2188C49.2135 19.0625 49.3698 18.9062 49.5156 18.75C49.8281 18.4271 50.1562 18.1667 50.5 17.9688C50.8333 17.6146 51.1719 17.2865 51.5156 16.9844C51.8594 16.6823 52.25 16.4271 52.6875 16.2188C52.8542 16.4896 52.8958 16.7135 52.8125 16.8906C52.7292 17.0677 52.625 17.2396 52.5 17.4062C52.4479 17.4583 52.375 17.5104 52.2812 17.5625C52.1667 17.625 52.0833 17.6771 52.0312 17.7188L51.875 17.875C51.8125 17.9375 51.7604 17.9688 51.7188 17.9688C51.7188 18.0521 51.6927 18.1198 51.6406 18.1719L51.5 18.3125C51.3646 18.5208 51.2188 18.7188 51.0625 18.9062C50.9167 19.0833 50.7604 19.2552 50.5938 19.4219C50.4271 19.5885 50.2604 19.7552 50.0938 19.9219C49.9375 20.0781 49.7812 20.2396 49.625 20.4062C49.4792 20.4583 49.3906 20.526 49.3594 20.6094C49.3281 20.7135 49.2604 20.8021 49.1562 20.875C49.1146 20.9271 49.0729 20.974 49.0312 21.0156C48.9896 21.0573 48.9479 21.099 48.9062 21.1406C48.8646 21.1823 48.8229 21.224 48.7812 21.2656C48.7396 21.3073 48.6979 21.3542 48.6562 21.4062C48.5312 21.5417 48.4219 21.6823 48.3281 21.8281C48.2344 21.9635 48.1042 22.0938 47.9375 22.2188C47.8333 22.3229 47.7552 22.4323 47.7031 22.5469C47.6615 22.651 47.5833 22.7604 47.4688 22.875C47.3021 23.0417 47.1823 23.1198 47.1094 23.1094C47.0469 23.099 46.9896 23.1979 46.9375 23.4062C46.7708 23.5312 46.6771 23.6198 46.6562 23.6719C46.6458 23.7135 46.6146 23.7292 46.5625 23.7188C46.5104 23.7396 46.4375 23.7552 46.3438 23.7656C46.2396 23.776 46.1875 23.8021 46.1875 23.8438C46.0521 23.9062 45.9427 23.9688 45.8594 24.0312C45.776 24.1042 45.6771 24.1458 45.5625 24.1562C45.2917 24.1979 45.099 24.1823 44.9844 24.1094C44.8698 24.0365 44.75 23.9271 44.625 23.7812ZM59.7188 21.5312C59.8021 21.4167 59.8646 21.3385 59.9062 21.2969C59.9583 21.2448 60.0208 21.1979 60.0938 21.1562C60.3542 20.6042 60.6927 20.1667 61.1094 19.8438C61.5365 19.5208 61.9896 19.1562 62.4688 18.75C62.5729 18.75 62.6615 18.7135 62.7344 18.6406C62.8073 18.5677 62.8958 18.5104 63 18.4688C63.125 18.3542 63.2448 18.2604 63.3594 18.1875C63.4531 18.125 63.5312 18.0417 63.5938 17.9375C63.8333 17.8229 64.0573 17.6667 64.2656 17.4688C64.4844 17.2708 64.6979 17.0938 64.9062 16.9375C65.0729 16.8958 65.25 16.9167 65.4375 17C65.5208 17.1667 65.5521 17.3438 65.5312 17.5312C65.5104 17.7188 65.4062 17.8229 65.2188 17.8438C65.1562 17.9062 65.0885 17.9688 65.0156 18.0312C64.9427 18.0938 64.8542 18.1354 64.75 18.1562C64.5417 18.1979 64.4062 18.2812 64.3438 18.4062C64.3333 18.6042 64.3073 18.724 64.2656 18.7656C64.224 18.8073 64.1979 18.8438 64.1875 18.875C63.9583 19.2604 63.7031 19.5938 63.4219 19.875C63.1406 20.1458 62.875 20.4792 62.625 20.875C62.5104 20.9479 62.4167 21.0625 62.3438 21.2188C61.9688 21.4271 61.6927 21.5885 61.5156 21.7031C61.3385 21.8177 61.1771 21.9583 61.0312 22.125C60.9062 22.1979 60.8438 22.2604 60.8438 22.3125C60.8438 22.3542 60.8229 22.3958 60.7812 22.4375C60.5729 22.6146 60.4531 22.7448 60.4219 22.8281C60.3906 22.9115 60.3438 22.9792 60.2812 23.0312C60.1771 23.1042 60.0833 23.1771 60 23.25C59.9271 23.3125 59.8646 23.3698 59.8125 23.4219C59.6875 23.5469 59.5521 23.6354 59.4062 23.6875C59.2292 23.8333 58.9688 24.0052 58.625 24.2031C58.2812 24.4115 57.9271 24.5677 57.5625 24.6719C57.1979 24.7865 56.8958 24.7917 56.6562 24.6875L56.4375 24.5156C56.3958 24.4844 56.3229 24.4375 56.2188 24.375C56.0833 24.2083 55.9323 24.0677 55.7656 23.9531C55.6198 23.849 55.4792 23.6979 55.3438 23.5C55.1875 23.2812 55.0885 23.0573 55.0469 22.8281C55.0052 22.5885 54.9271 22.3542 54.8125 22.125C54.7604 21.5833 54.8021 21.1354 54.9375 20.7812C55.0521 20.4271 55.1771 20.099 55.3125 19.7969C55.4479 19.4844 55.599 19.1979 55.7656 18.9375C56.0885 18.4375 56.3125 17.8438 56.4375 17.1562C56.2083 16.9271 56.0781 16.7135 56.0469 16.5156C56.0365 16.4115 56.0156 16.2917 55.9844 16.1562C55.9531 16.0208 55.9167 15.8646 55.875 15.6875C55.3333 16.0417 54.8333 16.4896 54.375 17.0312C53.9167 17.5729 53.5104 18.125 53.1562 18.6875L52.7812 19.375C52.6771 19.5729 52.5521 19.7604 52.4062 19.9375C52.3021 20.0417 52.25 20.1094 52.25 20.1406C52.25 20.1719 52.2292 20.2083 52.1875 20.25C52.1042 20.3542 52.0365 20.4427 51.9844 20.5156C51.9323 20.5885 51.8958 20.6458 51.875 20.6875C51.8542 20.7292 51.8333 20.7708 51.8125 20.8125C51.7917 20.8438 51.7708 20.875 51.75 20.9062C51.6875 20.9896 51.6354 21.0521 51.5938 21.0938C51.5521 21.1354 51.5 21.1979 51.4375 21.2812C51.1458 21.6979 50.8802 22.0885 50.6406 22.4531L49.9062 23.5625C49.7917 23.7396 49.6979 23.9167 49.625 24.0938C49.5521 24.2812 49.4479 24.4479 49.3125 24.5938C49.1042 24.6146 48.9844 24.5833 48.9531 24.5C48.9219 24.4167 48.9271 24.3438 48.9688 24.2812C48.7188 24.1146 48.5781 23.7917 48.5469 23.3125C48.5156 22.8333 48.5625 22.4479 48.6875 22.1562C48.625 21.9688 48.6042 21.8646 48.625 21.8438C48.6458 21.8229 48.6562 21.7917 48.6562 21.75C48.9271 21.375 49.2031 21 49.4844 20.625C49.7656 20.25 50.0625 19.8958 50.375 19.5625C50.4271 19.4896 50.4792 19.4167 50.5312 19.3438C50.5833 19.2708 50.6302 19.1979 50.6719 19.125C50.776 18.9688 50.8854 18.8333 51 18.7188C51.1771 18.4167 51.3906 18.1042 51.6406 17.7812C51.8906 17.4688 52.0938 17.1458 52.25 16.8125C52.3646 16.6979 52.4427 16.5833 52.4844 16.4688C52.5365 16.3438 52.625 16.2396 52.75 16.1562C52.8229 16.0312 52.8854 15.9115 52.9375 15.7969C53 15.6719 53.0521 15.5521 53.0938 15.4375C53.1562 15.2396 53.2708 15.0417 53.4375 14.8438C53.4792 14.6979 53.5312 14.5833 53.5938 14.5C53.6562 14.4167 53.7396 14.3229 53.8438 14.2188C53.8542 14.125 53.9115 14.0365 54.0156 13.9531C54.1198 13.8698 54.1979 13.7812 54.25 13.6875C54.3021 13.5417 54.3542 13.4479 54.4062 13.4062C54.4688 13.3542 54.5 13.2812 54.5 13.1875C54.6042 13.0833 54.7083 12.974 54.8125 12.8594C54.9167 12.7448 55.0104 12.6042 55.0938 12.4375C55.3854 12.2708 55.5885 12.1875 55.7031 12.1875C55.8177 12.1875 55.9062 12.1354 55.9688 12.0312C56.0521 12.0312 56.1406 12.0312 56.2344 12.0312C56.3385 12.0312 56.4479 12.026 56.5625 12.0156C56.8021 11.9948 56.9271 12.0729 56.9375 12.25C56.9479 12.2917 56.9479 12.3438 56.9375 12.4062C56.9271 12.4375 56.9167 12.4688 56.9062 12.5C56.8958 12.5312 56.8854 12.5625 56.875 12.5938C56.8854 12.7812 56.8854 12.8802 56.875 12.8906C56.8542 12.9115 56.8438 12.9271 56.8438 12.9375C56.8229 13.0208 56.8177 13.0938 56.8281 13.1562C56.8385 13.2083 56.8438 13.3021 56.8438 13.4375C56.8333 13.5208 56.8229 13.5938 56.8125 13.6562C56.8021 13.7188 56.7917 13.776 56.7812 13.8281C56.7604 13.9323 56.8021 14.0521 56.9062 14.1875C56.9583 14.2604 57.0208 14.3177 57.0938 14.3594C57.1667 14.401 57.2396 14.4688 57.3125 14.5625C57.3646 14.6146 57.401 14.6771 57.4219 14.75C57.4427 14.8229 57.4792 14.8854 57.5312 14.9375C57.5729 14.9896 57.6354 15.0417 57.7188 15.0938C57.8021 15.1458 57.8646 15.2188 57.9062 15.3125C58.0208 15.3958 58.0573 15.4479 58.0156 15.4688C57.9844 15.4896 58.0312 15.5312 58.1562 15.5938C58.3958 15.8958 58.5729 16.2188 58.6875 16.5625C58.8229 16.8229 58.9375 17.0312 59.0312 17.1875C59.1354 17.3542 59.1354 17.5208 59.0312 17.6875C58.9688 17.75 58.8958 17.875 58.8125 18.0625C58.7188 18.1562 58.6354 18.2604 58.5625 18.375C58.5208 18.4479 58.4896 18.526 58.4688 18.6094C58.4583 18.6823 58.4271 18.75 58.375 18.8125C58.1875 19.1146 57.9948 19.3854 57.7969 19.625C57.599 19.8646 57.4271 20.125 57.2812 20.4062C57.2917 21 57.4062 21.4375 57.625 21.7188C57.875 22.0104 58.0312 22.1562 58.0938 22.1562C58.2292 22.1771 58.375 22.1354 58.5312 22.0312L58.9375 21.7812C58.9792 21.7604 59.0156 21.7396 59.0469 21.7188C59.0885 21.6979 59.125 21.6771 59.1562 21.6562C59.2188 21.6146 59.2917 21.5833 59.375 21.5625C59.5938 21.4896 59.6979 21.4635 59.6875 21.4844C59.6771 21.5156 59.6875 21.5312 59.7188 21.5312ZM63.0625 17.0938C63.1979 17.0208 63.3646 16.8646 63.5625 16.625C63.7604 16.375 63.9531 16.1354 64.1406 15.9062C64.3281 15.6667 64.4688 15.5312 64.5625 15.5C64.625 15.3958 64.6823 15.3073 64.7344 15.2344C64.7865 15.1615 64.8646 15.0938 64.9688 15.0312C65.1354 14.7292 65.3542 14.474 65.625 14.2656C65.9062 14.0469 66.1667 13.8125 66.4062 13.5625C66.6042 13.4792 66.8021 13.3854 67 13.2812C67.2083 13.1771 67.4115 13.0573 67.6094 12.9219C68.0156 12.651 68.4688 12.5104 68.9688 12.5C69.1979 12.6042 69.4219 12.6354 69.6406 12.5938C69.849 12.5521 70.0521 12.6042 70.25 12.75C70.3646 12.9479 70.4583 13.0677 70.5312 13.1094C70.6042 13.151 70.6667 13.2083 70.7188 13.2812C70.8021 13.5417 70.8646 13.7135 70.9062 13.7969C70.9583 13.8802 70.9896 13.9688 71 14.0625C71.0104 14.2188 71.0208 14.3542 71.0312 14.4688C71.0417 14.5729 71.0521 14.6615 71.0625 14.7344C71.0729 14.8698 71.0729 15 71.0625 15.125C71 15.6562 70.8958 16.1875 70.75 16.7188C70.7292 16.7812 70.7083 16.8438 70.6875 16.9062C70.6667 16.9688 70.6458 17.0365 70.625 17.1094C70.5833 17.2448 70.5312 17.3646 70.4688 17.4688C70.3125 17.6667 70.2031 17.8281 70.1406 17.9531C70.0469 18.1198 69.9792 18.2292 69.9375 18.2812C69.8125 18.4062 69.6927 18.5208 69.5781 18.625C69.474 18.7292 69.375 18.8229 69.2812 18.9062C69.1875 18.9583 69.0938 19.0156 69 19.0781C68.9062 19.1302 68.8125 19.1875 68.7188 19.25C68.5417 19.3646 68.3333 19.4479 68.0938 19.5L67.8125 19.6719C67.7188 19.7344 67.6146 19.7708 67.5 19.7812C67.3125 19.9167 67.1042 20.026 66.875 20.1094C66.7708 20.151 66.6615 20.1927 66.5469 20.2344C66.4427 20.276 66.3333 20.3229 66.2188 20.375C66.0625 20.4375 65.9271 20.5104 65.8125 20.5938C65.6979 20.6771 65.5521 20.7604 65.375 20.8438C65.2812 20.875 65.1302 20.9115 64.9219 20.9531C64.724 20.9844 64.5833 21.0208 64.5 21.0625C64.6042 21.2708 64.6458 21.5312 64.625 21.8438C64.6146 22.1354 64.6667 22.3958 64.7812 22.625C65.0521 22.6875 65.349 22.7344 65.6719 22.7656C65.9948 22.7969 66.3021 22.7917 66.5938 22.75C66.6458 22.7396 66.6979 22.724 66.75 22.7031C66.8125 22.6823 66.875 22.6615 66.9375 22.6406C67 22.6198 67.0625 22.599 67.125 22.5781C67.1875 22.5573 67.25 22.5417 67.3125 22.5312C67.5417 22.4896 67.7656 22.4375 67.9844 22.375C68.2031 22.3125 68.3958 22.2292 68.5625 22.125C69.1667 21.9167 69.75 21.6354 70.3125 21.2812C70.875 20.9271 71.3646 20.5417 71.7812 20.125C72.0312 19.9583 72.3073 19.7292 72.6094 19.4375C72.9115 19.1458 73.1458 18.875 73.3125 18.625C73.625 18.2917 73.901 18.0312 74.1406 17.8438C74.3802 17.6562 74.6042 17.5729 74.8125 17.5938C74.9792 17.5938 75.1406 17.6927 75.2969 17.8906C75.4531 18.0885 75.4375 18.3021 75.25 18.5312C75.0521 18.6562 74.8333 18.8438 74.5938 19.0938C74.3646 19.3438 74.125 19.5208 73.875 19.625C73.6979 19.7396 73.4635 19.9688 73.1719 20.3125C72.8906 20.6354 72.6562 20.8854 72.4688 21.0625C72.4271 21.1042 72.3802 21.151 72.3281 21.2031C72.276 21.2552 72.2135 21.3073 72.1406 21.3594C72.0052 21.4635 71.8958 21.5729 71.8125 21.6875C71.4896 21.9583 71.1771 22.1875 70.875 22.375C70.7604 22.3333 70.6667 22.3542 70.5938 22.4375C70.5 22.5521 70.4167 22.6354 70.3438 22.6875C70.3125 22.7083 70.2812 22.7292 70.25 22.75C70.2188 22.7708 70.1823 22.7917 70.1406 22.8125C70.099 22.8333 70.0625 22.8542 70.0312 22.875C70 22.8958 69.9688 22.9167 69.9375 22.9375C69.7708 23.0833 69.5885 23.2292 69.3906 23.375C69.1927 23.5208 68.9896 23.6458 68.7812 23.75C68.5729 23.875 68.3646 23.9896 68.1562 24.0938C67.9479 24.2083 67.7396 24.3073 67.5312 24.3906C67.3229 24.474 67.1146 24.5729 66.9062 24.6875C66.7083 24.8021 66.5104 24.9271 66.3125 25.0625L65.9688 25.1094C65.9167 25.1198 65.8646 25.125 65.8125 25.125C65.7604 25.1354 65.7083 25.1458 65.6562 25.1562C65.5417 25.1979 65.4323 25.2188 65.3281 25.2188C65.224 25.2188 65.0938 25.1979 64.9375 25.1562C64.25 24.9688 63.6875 24.6354 63.25 24.1562C63.1875 24.0938 63.1198 24.0365 63.0469 23.9844C62.9844 23.9219 62.9167 23.8646 62.8438 23.8125C62.6771 23.6875 62.5625 23.5729 62.5 23.4688C62.4062 23.3125 62.3125 23.0677 62.2188 22.7344C62.1146 22.401 62.026 22.0625 61.9531 21.7188C61.8802 21.3646 61.8438 21.0938 61.8438 20.9062C61.9062 20.7812 61.974 20.5677 62.0469 20.2656C62.1198 19.9531 62.1823 19.6458 62.2344 19.3438C62.2865 19.0312 62.3125 18.8125 62.3125 18.6875C62.3542 18.6458 62.4375 18.5104 62.5625 18.2812C62.6771 18.0417 62.7865 17.8021 62.8906 17.5625C63.0052 17.3125 63.0625 17.1562 63.0625 17.0938ZM68.0938 15.0938C67.9479 15.2812 67.8021 15.4583 67.6562 15.625C67.5104 15.7917 67.3438 15.9479 67.1562 16.0938C67.0312 16.3229 66.8854 16.5312 66.7188 16.7188C66.5521 16.9062 66.3854 17.0833 66.2188 17.25C66.1354 17.4167 66.0417 17.5469 65.9375 17.6406C65.8333 17.7344 65.7188 17.8333 65.5938 17.9375C65.4583 18.1667 65.2917 18.3854 65.0938 18.5938C64.8958 18.8021 64.8542 19.0417 64.9688 19.3125C65.1979 19.3542 65.4271 19.3229 65.6562 19.2188C65.8854 19.1146 66.0833 19.0208 66.25 18.9375C66.3333 18.8854 66.4167 18.8385 66.5 18.7969C66.5938 18.7552 66.6823 18.7135 66.7656 18.6719C66.849 18.6302 66.9323 18.5885 67.0156 18.5469C67.099 18.5052 67.1771 18.4583 67.25 18.4062L68.0625 17.5938C68.1875 17.4792 68.3125 17.3438 68.4375 17.1875C68.4896 17.1146 68.5417 17.0417 68.5938 16.9688C68.6562 16.8854 68.7188 16.8021 68.7812 16.7188C68.8333 16.4896 68.9167 16.276 69.0312 16.0781C69.1562 15.8698 69.2083 15.6562 69.1875 15.4375C69.1771 15.3438 69.1406 15.2344 69.0781 15.1094C69.0156 14.9844 68.9792 14.8854 68.9688 14.8125C68.75 14.8125 68.5885 14.849 68.4844 14.9219C68.4323 14.9635 68.3698 15 68.2969 15.0312C68.2344 15.0521 68.1667 15.0729 68.0938 15.0938ZM75.9688 21.5312C75.875 21.6771 75.8021 21.8646 75.75 22.0938C75.6979 22.3229 75.625 22.5104 75.5312 22.6562C75.4583 22.8229 75.3646 22.9792 75.25 23.125C75.1562 23.2396 75.0833 23.4167 75.0312 23.6562C75.0104 23.8229 75.0156 23.9896 75.0469 24.1562C75.0781 24.3542 75.0729 24.5104 75.0312 24.625C75.0208 24.6979 74.9792 24.776 74.9062 24.8594C74.8438 24.9323 74.8438 25.0208 74.9062 25.125C74.5312 25.2917 74.1979 25.3542 73.9062 25.3125C73.6146 25.2708 73.3646 25.1771 73.1562 25.0312C73.0521 25.0521 72.9635 25.0417 72.8906 25C72.8177 24.9583 72.7396 24.9062 72.6562 24.8438C72.5521 24.8021 72.5052 24.7292 72.5156 24.625C72.5365 24.5104 72.5208 24.4167 72.4688 24.3438C72.3542 24 72.276 23.7865 72.2344 23.7031C72.1823 23.5885 72.1667 23.4583 72.1875 23.3125C72.2396 23.0312 72.3385 22.8073 72.4844 22.6406C72.6094 22.4948 72.7396 22.3021 72.875 22.0625C73 21.75 73.1198 21.4792 73.2344 21.25C73.349 21.0208 73.4792 20.8021 73.625 20.5938C73.6354 20.5312 73.6719 20.4583 73.7344 20.375L73.875 20.1875C73.9375 20.0521 73.9792 19.9635 74 19.9219L74.125 19.6875C74.1562 19.6354 74.1875 19.5833 74.2188 19.5312C74.25 19.4688 74.276 19.4062 74.2969 19.3438C74.3177 19.2812 74.3438 19.224 74.375 19.1719C74.4062 19.1094 74.4375 19.0521 74.4688 19C74.5104 18.8958 74.5625 18.7917 74.625 18.6875L74.8125 18.375C74.8229 18.3438 74.8333 18.3125 74.8438 18.2812C74.8542 18.25 74.8646 18.2188 74.875 18.1875C74.8854 18.1354 74.9271 18.0833 75 18.0312C75 17.8958 75.0208 17.8073 75.0625 17.7656C75.1042 17.724 75.125 17.625 75.125 17.4688C75.2396 17.3333 75.3333 17.2031 75.4062 17.0781C75.4792 16.9531 75.5729 16.8229 75.6875 16.6875L76.2188 15.8281C76.3438 15.6302 76.4583 15.4167 76.5625 15.1875C76.5625 15.0833 76.5833 14.9948 76.625 14.9219L76.75 14.6875C76.7917 14.625 76.8229 14.5521 76.8438 14.4688C76.8542 14.3958 76.8958 14.3333 76.9688 14.2812C77.1146 13.8646 77.2396 13.5312 77.3438 13.2812C77.4479 13.0312 77.5521 12.7917 77.6562 12.5625C77.7188 12.4167 77.776 12.3177 77.8281 12.2656C77.8906 12.2031 77.9271 12.1562 77.9375 12.125C78 11.9688 78.0573 11.8333 78.1094 11.7188C78.1615 11.5938 78.2083 11.4948 78.25 11.4219C78.3333 11.2552 78.3958 11.0938 78.4375 10.9375C78.5521 10.6979 78.6667 10.4896 78.7812 10.3125C78.9062 10.125 79 9.88542 79.0625 9.59375C79.1458 9.52083 79.2031 9.44271 79.2344 9.35938C79.2656 9.27604 79.3229 9.19792 79.4062 9.125C79.4271 9.0625 79.4479 9 79.4688 8.9375C79.5 8.875 79.5312 8.8125 79.5625 8.75L79.75 8.375C79.8542 8.22917 79.9479 8.05208 80.0312 7.84375C80.1875 7.54167 80.3438 7.28646 80.5 7.07812C80.6458 6.88021 80.7917 6.63542 80.9375 6.34375C81.0625 6.04167 81.151 5.84375 81.2031 5.75C81.2656 5.64583 81.3021 5.55208 81.3125 5.46875C81.1771 5.51042 81.0365 5.55729 80.8906 5.60938C80.7552 5.66146 80.6146 5.71354 80.4688 5.76562C80.1562 5.88021 79.8229 5.91667 79.4688 5.875C79.2396 5.83333 79.0885 5.83333 79.0156 5.875C78.9427 5.91667 78.8646 5.9375 78.7812 5.9375C78.6354 5.95833 78.5469 5.96875 78.5156 5.96875C78.4323 5.96875 78.3542 5.98958 78.2812 6.03125C78.1042 6.09375 77.9531 6.15104 77.8281 6.20312C77.7135 6.24479 77.6198 6.28125 77.5469 6.3125C77.4115 6.375 77.2708 6.36458 77.125 6.28125C77.1354 6.19792 77.1458 6.11458 77.1562 6.03125C77.1667 5.9375 77.1771 5.84375 77.1875 5.75C77.2083 5.5625 77.2708 5.40625 77.375 5.28125C77.875 4.86458 78.4219 4.50521 79.0156 4.20312C79.6094 3.90104 80.2292 3.60417 80.875 3.3125C81.1042 3.25 81.3125 3.19271 81.5 3.14062C81.6875 3.08854 81.8646 3.02083 82.0312 2.9375C82.1979 2.58333 82.375 2.25 82.5625 1.9375C82.75 1.625 82.9688 1.34375 83.2188 1.09375C83.4375 0.958333 83.5312 0.90625 83.5 0.9375C83.4792 0.958333 83.5208 0.96875 83.625 0.96875C83.7396 1.02083 83.8333 1.14583 83.9062 1.34375C83.9583 1.40625 84.0052 1.48958 84.0469 1.59375C84.0781 1.6875 84.1458 1.73958 84.25 1.75C84.3125 1.77083 84.3802 1.76562 84.4531 1.73438C84.5573 1.69271 84.6354 1.66667 84.6875 1.65625C84.9062 1.63542 85.0677 1.60417 85.1719 1.5625C85.2656 1.52083 85.375 1.51042 85.5 1.53125C85.5833 1.5 85.7031 1.47396 85.8594 1.45312C86.0156 1.43229 86.1354 1.40625 86.2188 1.375C86.375 1.35417 86.5052 1.32292 86.6094 1.28125C86.724 1.22917 86.8646 1.19792 87.0312 1.1875C87.5417 1.14583 88.1146 1.19792 88.75 1.34375C88.8021 1.375 88.8906 1.42188 89.0156 1.48438L89.3125 1.625C89.5104 1.71875 89.6615 1.78125 89.7656 1.8125C89.9115 1.85417 90.0312 1.92708 90.125 2.03125C90.3229 2.22917 90.4896 2.4375 90.625 2.65625C90.7083 2.66667 90.7812 2.70833 90.8438 2.78125C90.8854 2.82292 90.9479 2.875 91.0312 2.9375C91.0938 3.05208 91.1562 3.16146 91.2188 3.26562C91.2812 3.36979 91.3438 3.47396 91.4062 3.57812C91.5208 3.76562 91.6042 4 91.6562 4.28125C91.7083 4.63542 91.6927 4.99479 91.6094 5.35938C91.5677 5.53646 91.5312 5.71875 91.5 5.90625C91.4688 6.08333 91.4375 6.26042 91.4062 6.4375C91.3854 6.54167 91.3646 6.64062 91.3438 6.73438C91.3229 6.82812 91.3021 6.91667 91.2812 7C91.2604 7.08333 91.2552 7.15104 91.2656 7.20312C91.276 7.25521 91.2812 7.33333 91.2812 7.4375C91.2708 7.67708 91.224 7.91667 91.1406 8.15625C91.0781 8.35417 91.0104 8.58333 90.9375 8.84375C90.7708 9.44792 90.599 10.0208 90.4219 10.5625C90.2448 11.1042 89.9375 11.5417 89.5 11.875C89.3958 12.0417 89.2812 12.1875 89.1562 12.3125L88.75 12.7188C88.4792 13.0521 88.125 13.3125 87.6875 13.5C87.0833 13.9375 86.4479 14.3438 85.7812 14.7188L85.0312 15.2188C84.7917 15.3854 84.5208 15.5312 84.2188 15.6562C84.0938 15.7708 83.9323 15.8802 83.7344 15.9844C83.651 16.026 83.5625 16.0729 83.4688 16.125C83.375 16.1771 83.2812 16.2292 83.1875 16.2812L81.8594 16.9375C81.6615 17.0417 81.4479 17.1406 81.2188 17.2344C81 17.3177 80.7708 17.3958 80.5312 17.4688C80.1562 17.5521 79.8021 17.6094 79.4688 17.6406C79.1354 17.6719 78.8229 17.6458 78.5312 17.5625C78.5 17.5521 78.4583 17.5365 78.4062 17.5156C78.3646 17.4948 78.3177 17.474 78.2656 17.4531C78.1406 17.401 78.0625 17.375 78.0312 17.375C77.9271 17.4167 77.8438 17.5469 77.7812 17.7656C77.7083 18.0052 77.6562 18.1667 77.625 18.25C77.5 18.5625 77.3542 18.849 77.1875 19.1094C77 19.4115 76.8438 19.6979 76.7188 19.9688L76.3438 20.75C76.2812 20.8854 76.2188 21.0208 76.1562 21.1562C76.0938 21.2812 76.0312 21.4062 75.9688 21.5312ZM80.2812 14.8125C80.4479 14.6875 80.6562 14.6354 80.9062 14.6562C81.1875 14.6771 81.4062 14.6667 81.5625 14.625C81.75 14.5729 81.8594 14.5573 81.8906 14.5781C81.9115 14.5885 81.9479 14.5938 82 14.5938C82.0625 14.5938 82.1458 14.5833 82.25 14.5625C82.3542 14.5417 82.4271 14.5208 82.4688 14.5C82.5938 14.4583 82.7135 14.4115 82.8281 14.3594C82.9531 14.2969 83.0729 14.2292 83.1875 14.1562C83.3021 14.0833 83.4167 14.0208 83.5312 13.9688C83.6458 13.9062 83.7604 13.8542 83.875 13.8125C83.9688 13.7188 84.0833 13.6302 84.2188 13.5469C84.2812 13.5052 84.3438 13.4635 84.4062 13.4219C84.4792 13.3802 84.5521 13.3333 84.625 13.2812L84.9375 12.9688C85.0312 12.875 85.1562 12.8021 85.3125 12.75C85.4062 12.6042 85.4688 12.5156 85.5 12.4844C85.5208 12.4635 85.5312 12.4479 85.5312 12.4375C85.7396 12.2917 85.9115 12.1198 86.0469 11.9219C86.1823 11.724 86.3229 11.5104 86.4688 11.2812C86.6146 11.0938 86.7604 10.901 86.9062 10.7031C87.0521 10.5052 87.1771 10.2917 87.2812 10.0625L87.625 9.60938C87.7188 9.49479 87.8229 9.34375 87.9375 9.15625C87.9792 9.11458 88 9.0625 88 9C88 8.92708 88.0208 8.86458 88.0625 8.8125C88.1875 8.54167 88.2708 8.375 88.3125 8.3125C88.375 8.10417 88.4479 7.95833 88.5312 7.875C88.5521 7.83333 88.5729 7.79688 88.5938 7.76562C88.6146 7.72396 88.6354 7.6875 88.6562 7.65625C88.6771 7.625 88.6979 7.59375 88.7188 7.5625C88.7396 7.52083 88.7604 7.47917 88.7812 7.4375C88.8125 7.36458 88.8594 7.27604 88.9219 7.17188L89.0625 6.9375C89.0938 6.90625 89.1198 6.85417 89.1406 6.78125C89.1615 6.69792 89.1875 6.63542 89.2188 6.59375C89.2292 6.53125 89.2552 6.47396 89.2969 6.42188C89.3385 6.35938 89.3646 6.3125 89.375 6.28125C89.4375 6.10417 89.4479 5.92708 89.4062 5.75C89.3646 5.58333 89.3438 5.42708 89.3438 5.28125C89.3021 5.125 89.2656 4.98438 89.2344 4.85938C89.2135 4.73438 89.1979 4.625 89.1875 4.53125C89.1771 4.35417 89.1146 4.20833 89 4.09375C88.9688 4.0625 88.9167 4.03646 88.8438 4.01562C88.7708 3.99479 88.7188 3.96875 88.6875 3.9375C88.4688 3.85417 88.3281 3.81771 88.2656 3.82812C88.1927 3.83854 88.1042 3.82292 88 3.78125C87.8646 3.84375 87.6927 3.85938 87.4844 3.82812C87.3073 3.79688 87.0938 3.79167 86.8438 3.8125C86.7292 3.8125 86.6042 3.83854 86.4688 3.89062C86.3333 3.94271 86.2188 3.94792 86.125 3.90625C85.9375 3.98958 85.7917 4.03125 85.6875 4.03125C85.5417 4.05208 85.4479 4.0625 85.4062 4.0625C85.3438 4.0625 85.2604 4.07292 85.1562 4.09375C85.0208 4.11458 84.8854 4.14583 84.75 4.1875C84.625 4.21875 84.5052 4.26042 84.3906 4.3125C84.1719 4.41667 83.9167 4.51042 83.625 4.59375C83.625 4.77083 83.6042 4.91667 83.5625 5.03125C83.5208 5.14583 83.5 5.28125 83.5 5.4375C83.3646 5.82292 83.2188 6.16667 83.0625 6.46875C82.9792 6.63542 82.901 6.80729 82.8281 6.98438C82.7656 7.15104 82.7083 7.32292 82.6562 7.5C82.4271 7.91667 82.2188 8.34896 82.0312 8.79688C81.8333 9.26562 81.625 9.70833 81.4062 10.125C81.3438 10.2604 81.276 10.3958 81.2031 10.5312C81.1302 10.6667 81.0521 10.8021 80.9688 10.9375C80.8125 11.1875 80.7083 11.5 80.6562 11.875C80.5521 12.1042 80.474 12.3229 80.4219 12.5312C80.401 12.6354 80.3698 12.7396 80.3281 12.8438C80.2969 12.9375 80.2604 13.0312 80.2188 13.125C80.1979 13.1771 80.1771 13.2292 80.1562 13.2812C80.1354 13.3229 80.1146 13.3646 80.0938 13.4062C80.0729 13.4479 80.0521 13.4948 80.0312 13.5469C80.0104 13.5885 79.9896 13.6354 79.9688 13.6875C79.9167 13.75 79.8854 13.8177 79.875 13.8906C79.8646 13.9531 79.8333 14.0417 79.7812 14.1562C79.6771 14.3229 79.6094 14.4792 79.5781 14.625C79.5677 14.6875 79.5521 14.75 79.5312 14.8125C79.5104 14.875 79.4896 14.9375 79.4688 15C79.5417 14.9896 79.6615 14.9479 79.8281 14.875C79.9531 14.8125 80.1042 14.7917 80.2812 14.8125ZM96.9062 21.5312C96.9896 21.4167 97.0521 21.3385 97.0938 21.2969C97.1458 21.2448 97.2083 21.1979 97.2812 21.1562C97.5417 20.6042 97.8802 20.1667 98.2969 19.8438C98.724 19.5208 99.1771 19.1562 99.6562 18.75C99.7604 18.75 99.849 18.7135 99.9219 18.6406C99.9948 18.5677 100.083 18.5104 100.188 18.4688C100.312 18.3542 100.432 18.2604 100.547 18.1875C100.641 18.125 100.719 18.0417 100.781 17.9375C101.021 17.8229 101.245 17.6667 101.453 17.4688C101.672 17.2708 101.885 17.0938 102.094 16.9375C102.26 16.8958 102.438 16.9167 102.625 17C102.708 17.1667 102.74 17.3438 102.719 17.5312C102.698 17.7188 102.594 17.8229 102.406 17.8438C102.344 17.9062 102.276 17.9688 102.203 18.0312C102.13 18.0938 102.042 18.1354 101.938 18.1562C101.729 18.1979 101.594 18.2812 101.531 18.4062C101.521 18.6042 101.495 18.724 101.453 18.7656C101.411 18.8073 101.385 18.8438 101.375 18.875C101.146 19.2604 100.891 19.5938 100.609 19.875C100.328 20.1458 100.062 20.4792 99.8125 20.875C99.6979 20.9479 99.6042 21.0625 99.5312 21.2188C99.1562 21.4271 98.8802 21.5885 98.7031 21.7031C98.526 21.8177 98.3646 21.9583 98.2188 22.125C98.0938 22.1979 98.0312 22.2604 98.0312 22.3125C98.0312 22.3542 98.0104 22.3958 97.9688 22.4375C97.7604 22.6146 97.6406 22.7448 97.6094 22.8281C97.5781 22.9115 97.5312 22.9792 97.4688 23.0312C97.3646 23.1042 97.2708 23.1771 97.1875 23.25C97.1146 23.3125 97.0521 23.3698 97 23.4219C96.875 23.5469 96.7396 23.6354 96.5938 23.6875C96.4167 23.8333 96.1562 24.0052 95.8125 24.2031C95.4688 24.4115 95.1146 24.5677 94.75 24.6719C94.3854 24.7865 94.0833 24.7917 93.8438 24.6875L93.625 24.5156C93.5833 24.4844 93.5104 24.4375 93.4062 24.375C93.2708 24.2083 93.1198 24.0677 92.9531 23.9531C92.8073 23.849 92.6667 23.6979 92.5312 23.5C92.375 23.2812 92.276 23.0573 92.2344 22.8281C92.1927 22.5885 92.1146 22.3542 92 22.125C91.9479 21.5833 91.9896 21.1354 92.125 20.7812C92.2396 20.4271 92.3646 20.099 92.5 19.7969C92.6354 19.4844 92.7865 19.1979 92.9531 18.9375C93.276 18.4375 93.5 17.8438 93.625 17.1562C93.3958 16.9271 93.2656 16.7135 93.2344 16.5156C93.224 16.4115 93.2031 16.2917 93.1719 16.1562C93.1406 16.0208 93.1042 15.8646 93.0625 15.6875C92.5208 16.0417 92.0208 16.4896 91.5625 17.0312C91.1042 17.5729 90.6979 18.125 90.3438 18.6875L89.9688 19.375C89.8646 19.5729 89.7396 19.7604 89.5938 19.9375C89.4896 20.0417 89.4375 20.1094 89.4375 20.1406C89.4375 20.1719 89.4167 20.2083 89.375 20.25C89.2917 20.3542 89.224 20.4427 89.1719 20.5156C89.1198 20.5885 89.0833 20.6458 89.0625 20.6875C89.0417 20.7292 89.0208 20.7708 89 20.8125C88.9792 20.8438 88.9583 20.875 88.9375 20.9062C88.875 20.9896 88.8229 21.0521 88.7812 21.0938C88.7396 21.1354 88.6875 21.1979 88.625 21.2812C88.3333 21.6979 88.0677 22.0885 87.8281 22.4531L87.0938 23.5625C86.9792 23.7396 86.8854 23.9167 86.8125 24.0938C86.7396 24.2812 86.6354 24.4479 86.5 24.5938C86.2917 24.6146 86.1719 24.5833 86.1406 24.5C86.1094 24.4167 86.1146 24.3438 86.1562 24.2812C85.9062 24.1146 85.7656 23.7917 85.7344 23.3125C85.7031 22.8333 85.75 22.4479 85.875 22.1562C85.8125 21.9688 85.7917 21.8646 85.8125 21.8438C85.8333 21.8229 85.8438 21.7917 85.8438 21.75C86.1146 21.375 86.3906 21 86.6719 20.625C86.9531 20.25 87.25 19.8958 87.5625 19.5625C87.6146 19.4896 87.6667 19.4167 87.7188 19.3438C87.7708 19.2708 87.8177 19.1979 87.8594 19.125C87.9635 18.9688 88.0729 18.8333 88.1875 18.7188C88.3646 18.4167 88.5781 18.1042 88.8281 17.7812C89.0781 17.4688 89.2812 17.1458 89.4375 16.8125C89.5521 16.6979 89.6302 16.5833 89.6719 16.4688C89.724 16.3438 89.8125 16.2396 89.9375 16.1562C90.0104 16.0312 90.0729 15.9115 90.125 15.7969C90.1875 15.6719 90.2396 15.5521 90.2812 15.4375C90.3438 15.2396 90.4583 15.0417 90.625 14.8438C90.6667 14.6979 90.7188 14.5833 90.7812 14.5C90.8438 14.4167 90.9271 14.3229 91.0312 14.2188C91.0417 14.125 91.099 14.0365 91.2031 13.9531C91.3073 13.8698 91.3854 13.7812 91.4375 13.6875C91.4896 13.5417 91.5417 13.4479 91.5938 13.4062C91.6562 13.3542 91.6875 13.2812 91.6875 13.1875C91.7917 13.0833 91.8958 12.974 92 12.8594C92.1042 12.7448 92.1979 12.6042 92.2812 12.4375C92.5729 12.2708 92.776 12.1875 92.8906 12.1875C93.0052 12.1875 93.0938 12.1354 93.1562 12.0312C93.2396 12.0312 93.3281 12.0312 93.4219 12.0312C93.526 12.0312 93.6354 12.026 93.75 12.0156C93.9896 11.9948 94.1146 12.0729 94.125 12.25C94.1354 12.2917 94.1354 12.3438 94.125 12.4062C94.1146 12.4375 94.1042 12.4688 94.0938 12.5C94.0833 12.5312 94.0729 12.5625 94.0625 12.5938C94.0729 12.7812 94.0729 12.8802 94.0625 12.8906C94.0417 12.9115 94.0312 12.9271 94.0312 12.9375C94.0104 13.0208 94.0052 13.0938 94.0156 13.1562C94.026 13.2083 94.0312 13.3021 94.0312 13.4375C94.0208 13.5208 94.0104 13.5938 94 13.6562C93.9896 13.7188 93.9792 13.776 93.9688 13.8281C93.9479 13.9323 93.9896 14.0521 94.0938 14.1875C94.1458 14.2604 94.2083 14.3177 94.2812 14.3594C94.3542 14.401 94.4271 14.4688 94.5 14.5625C94.5521 14.6146 94.5885 14.6771 94.6094 14.75C94.6302 14.8229 94.6667 14.8854 94.7188 14.9375C94.7604 14.9896 94.8229 15.0417 94.9062 15.0938C94.9896 15.1458 95.0521 15.2188 95.0938 15.3125C95.2083 15.3958 95.2448 15.4479 95.2031 15.4688C95.1719 15.4896 95.2188 15.5312 95.3438 15.5938C95.5833 15.8958 95.7604 16.2188 95.875 16.5625C96.0104 16.8229 96.125 17.0312 96.2188 17.1875C96.3229 17.3542 96.3229 17.5208 96.2188 17.6875C96.1562 17.75 96.0833 17.875 96 18.0625C95.9062 18.1562 95.8229 18.2604 95.75 18.375C95.7083 18.4479 95.6771 18.526 95.6562 18.6094C95.6458 18.6823 95.6146 18.75 95.5625 18.8125C95.375 19.1146 95.1823 19.3854 94.9844 19.625C94.7865 19.8646 94.6146 20.125 94.4688 20.4062C94.4792 21 94.5938 21.4375 94.8125 21.7188C95.0625 22.0104 95.2188 22.1562 95.2812 22.1562C95.4167 22.1771 95.5625 22.1354 95.7188 22.0312L96.125 21.7812C96.1667 21.7604 96.2031 21.7396 96.2344 21.7188C96.276 21.6979 96.3125 21.6771 96.3438 21.6562C96.4062 21.6146 96.4792 21.5833 96.5625 21.5625C96.7812 21.4896 96.8854 21.4635 96.875 21.4844C96.8646 21.5156 96.875 21.5312 96.9062 21.5312ZM115.531 14.9688C115.635 14.9792 115.703 15.0208 115.734 15.0938C115.766 15.1562 115.823 15.1875 115.906 15.1875C115.948 15.3854 115.906 15.526 115.781 15.6094C115.656 15.6823 115.615 15.8021 115.656 15.9688C115.469 16.0938 115.24 16.1719 114.969 16.2031C114.688 16.2344 114.479 16.3438 114.344 16.5312C113.979 16.7083 113.599 16.8177 113.203 16.8594C113.005 16.8802 112.797 16.9115 112.578 16.9531C112.37 16.9844 112.156 17.0208 111.938 17.0625C111.708 17.2188 111.568 17.3021 111.516 17.3125C111.443 17.3229 111.365 17.3542 111.281 17.4062C111.062 17.3229 110.844 17.2812 110.625 17.2812C110.406 17.2812 110.177 17.25 109.938 17.1875C109.823 17.2292 109.703 17.25 109.578 17.25C109.453 17.25 109.333 17.2708 109.219 17.3125C109.135 17.5 109.094 17.6875 109.094 17.875C109.094 18.0729 109.062 18.2604 109 18.4375L108.812 18.8125L108.766 19.1094C108.745 19.2344 108.719 19.3333 108.688 19.4062C108.646 19.4688 108.599 19.5417 108.547 19.625C108.495 19.7083 108.469 19.8021 108.469 19.9062C108.323 20.0938 108.219 20.2865 108.156 20.4844C108.094 20.7135 107.979 20.8958 107.812 21.0312C107.75 21.25 107.651 21.4167 107.516 21.5312C107.38 21.6562 107.25 21.8021 107.125 21.9688C106.896 22.2812 106.693 22.5521 106.516 22.7812C106.339 23.0104 106.104 23.2083 105.812 23.375C105.708 23.5417 105.583 23.6562 105.438 23.7188C105.333 23.8229 105.25 23.9271 105.188 24.0312L104.562 24.4062C104.312 24.5625 104.073 24.6667 103.844 24.7188C103.49 24.8021 103.146 24.7917 102.812 24.6875C102.479 24.5833 102.167 24.4375 101.875 24.25C101.677 24.2708 101.526 24.2344 101.422 24.1406C101.318 24.0573 101.177 23.9896 101 23.9375C100.771 23.7292 100.521 23.5417 100.25 23.375C99.9688 23.1979 99.7708 22.9688 99.6562 22.6875L99.5156 22C99.474 21.7917 99.4271 21.5833 99.375 21.375C99.3333 21.1979 99.3281 21 99.3594 20.7812C99.3906 20.5938 99.3958 20.3854 99.375 20.1562C99.375 20.0417 99.375 19.9375 99.375 19.8438C99.375 19.7396 99.3698 19.651 99.3594 19.5781C99.349 19.4219 99.3958 19.2292 99.5 19C99.5625 18.8646 99.6146 18.7396 99.6562 18.625C99.6979 18.5104 99.7292 18.4115 99.75 18.3281C99.7708 18.2448 99.7917 18.1667 99.8125 18.0938C99.8333 18.0104 99.8542 17.9375 99.875 17.875C99.9062 17.8229 99.9375 17.7708 99.9688 17.7188C100 17.6562 100.031 17.5938 100.062 17.5312C100.094 17.4688 100.125 17.4115 100.156 17.3594C100.198 17.2969 100.24 17.2396 100.281 17.1875C100.406 17 100.552 16.8125 100.719 16.625C100.885 16.4375 101.052 16.2604 101.219 16.0938C101.333 15.9375 101.448 15.8021 101.562 15.6875C101.75 15.5 101.927 15.3438 102.094 15.2188C102.26 15.0938 102.448 14.9271 102.656 14.7188C102.698 14.6562 102.75 14.6042 102.812 14.5625L103 14.4375C103.208 14.3125 103.401 14.2083 103.578 14.125C103.755 14.0417 103.958 13.9479 104.188 13.8438C104.385 13.75 104.547 13.6927 104.672 13.6719C104.755 13.651 104.839 13.6354 104.922 13.625C105.016 13.6042 105.115 13.5833 105.219 13.5625H105.594C105.708 13.5625 105.812 13.5417 105.906 13.5C105.844 13.3333 105.917 13.2188 106.125 13.1562C106.333 13.0938 106.49 13.0729 106.594 13.0938C106.802 13.0938 106.969 13.1406 107.094 13.2344C107.219 13.3281 107.333 13.4375 107.438 13.5625C107.646 13.7083 107.875 13.9271 108.125 14.2188C108.177 14.2708 108.229 14.3021 108.281 14.3125C108.333 14.3229 108.385 14.3542 108.438 14.4062C108.521 14.5312 108.578 14.6458 108.609 14.75C108.641 14.875 108.708 14.9896 108.812 15.0938C108.875 15.1354 108.938 15.1875 109 15.25C109.062 15.3125 109.104 15.3958 109.125 15.5C109.344 15.5833 109.542 15.6458 109.719 15.6875C109.812 15.7292 109.922 15.7396 110.047 15.7188C110.161 15.6979 110.292 15.6979 110.438 15.7188C110.531 15.7292 110.625 15.7552 110.719 15.7969C110.802 15.8281 110.896 15.8438 111 15.8438C111.156 15.8333 111.328 15.7917 111.516 15.7188C111.693 15.6562 111.896 15.6458 112.125 15.6875C112.438 15.7604 112.766 15.7292 113.109 15.5938C113.453 15.4479 113.802 15.3542 114.156 15.3125C114.26 15.3125 114.333 15.3073 114.375 15.2969C114.417 15.2865 114.49 15.2812 114.594 15.2812C114.698 15.1979 114.833 15.1354 115 15.0938C115.167 15.0521 115.344 15.0104 115.531 14.9688ZM106.594 15.9062C106.385 15.7188 106.266 15.599 106.234 15.5469C106.193 15.4844 106.156 15.4479 106.125 15.4375C106.031 15.3438 105.927 15.2917 105.812 15.2812C105.75 15.2708 105.688 15.2604 105.625 15.25C105.573 15.2396 105.521 15.2292 105.469 15.2188C105.135 15.1562 104.859 15.1927 104.641 15.3281C104.536 15.401 104.427 15.4688 104.312 15.5312C104.208 15.5938 104.104 15.6562 104 15.7188C103.667 15.9271 103.375 16.1875 103.125 16.5C103.062 16.6042 102.995 16.7188 102.922 16.8438C102.849 16.9688 102.792 17.1042 102.75 17.25C102.667 17.4167 102.594 17.5677 102.531 17.7031C102.469 17.8385 102.417 18 102.375 18.1875C102.271 18.3854 102.208 18.5573 102.188 18.7031C102.177 18.776 102.167 18.8438 102.156 18.9062C102.146 18.9583 102.135 19.0104 102.125 19.0625C102.115 19.1667 102.099 19.276 102.078 19.3906C102.057 19.4948 102.036 19.6042 102.016 19.7188C101.964 19.9792 101.938 20.1771 101.938 20.3125C101.958 20.375 101.99 20.4583 102.031 20.5625C102.073 20.6667 102.115 20.7396 102.156 20.7812C102.198 20.8854 102.245 21 102.297 21.125C102.349 21.25 102.396 21.3438 102.438 21.4062C102.552 21.5521 102.688 21.6458 102.844 21.6875C102.927 21.7083 103.016 21.7344 103.109 21.7656C103.203 21.7865 103.302 21.8125 103.406 21.8438C103.635 21.9688 103.792 22.0208 103.875 22C103.979 21.9792 104.042 21.9688 104.062 21.9688C104.344 21.9167 104.583 21.8021 104.781 21.625C104.958 21.4583 105.167 21.3125 105.406 21.1875C105.49 21.0625 105.573 20.9323 105.656 20.7969C105.75 20.6615 105.849 20.526 105.953 20.3906C106.057 20.2448 106.151 20.1042 106.234 19.9688C106.328 19.8229 106.417 19.6771 106.5 19.5312C106.552 19.4688 106.604 19.375 106.656 19.25C106.677 19.1979 106.698 19.151 106.719 19.1094C106.74 19.0573 106.76 19.0104 106.781 18.9688C106.927 18.7917 106.995 18.6979 106.984 18.6875C106.974 18.6771 106.979 18.6458 107 18.5938C107.135 18.2812 107.198 18.0417 107.188 17.875C107.177 17.7083 107.177 17.5417 107.188 17.375C107.135 17.2604 107.089 17.1406 107.047 17.0156C107.005 16.8906 106.964 16.7604 106.922 16.625C106.839 16.3438 106.729 16.1042 106.594 15.9062ZM114.031 20.0312C114.135 20.0208 114.219 19.974 114.281 19.8906C114.323 19.8385 114.396 19.7708 114.5 19.6875C114.531 19.6667 114.562 19.6458 114.594 19.625C114.625 19.6042 114.661 19.5833 114.703 19.5625C114.745 19.5417 114.781 19.5208 114.812 19.5C114.844 19.4792 114.875 19.4583 114.906 19.4375C115.177 19.2396 115.411 19.0312 115.609 18.8125C115.807 18.6042 116.031 18.4062 116.281 18.2188C116.417 18.0625 116.552 17.9167 116.688 17.7812C116.833 17.6354 116.974 17.4948 117.109 17.3594C117.37 17.1094 117.625 16.8125 117.875 16.4688C118.208 16.2188 118.521 15.9479 118.812 15.6562C119.01 15.5312 119.172 15.4115 119.297 15.2969C119.422 15.1823 119.594 15.0625 119.812 14.9375C119.917 14.8125 120.031 14.6771 120.156 14.5312C120.281 14.3854 120.427 14.2604 120.594 14.1562C120.771 13.9792 120.953 13.8542 121.141 13.7812C121.328 13.7083 121.51 13.5833 121.688 13.4062C122 13.2396 122.281 13.2135 122.531 13.3281C122.781 13.4427 122.979 13.5833 123.125 13.75C123.198 13.9375 123.323 14.1354 123.5 14.3438C123.521 14.375 123.542 14.4062 123.562 14.4375C123.583 14.4688 123.604 14.4948 123.625 14.5156C123.667 14.5573 123.688 14.6354 123.688 14.75C123.688 14.9896 123.656 15.2292 123.594 15.4688C123.562 15.5833 123.531 15.6979 123.5 15.8125C123.479 15.9271 123.458 16.0417 123.438 16.1562C123.417 16.3021 123.401 16.4479 123.391 16.5938C123.38 16.7292 123.37 16.8698 123.359 17.0156C123.349 17.2865 123.302 17.5729 123.219 17.875C123.333 18.0417 123.432 18.2188 123.516 18.4062C123.599 18.6042 123.698 18.7604 123.812 18.875C123.885 18.8646 123.979 18.7812 124.094 18.625C124.146 18.5833 124.198 18.5469 124.25 18.5156C124.312 18.474 124.38 18.4323 124.453 18.3906C124.599 18.3073 124.719 18.2188 124.812 18.125C124.896 18.0417 124.974 17.9635 125.047 17.8906C125.12 17.8177 125.193 17.75 125.266 17.6875C125.422 17.5521 125.562 17.4062 125.688 17.25C125.76 17.1771 125.833 17.1094 125.906 17.0469C125.979 16.974 126.052 16.9062 126.125 16.8438C126.198 16.7812 126.271 16.7188 126.344 16.6562C126.427 16.5833 126.51 16.5104 126.594 16.4375C126.677 16.3542 126.755 16.2708 126.828 16.1875C126.901 16.0938 126.974 16.0052 127.047 15.9219C127.12 15.8385 127.193 15.7552 127.266 15.6719C127.339 15.5781 127.417 15.4896 127.5 15.4062C127.573 15.3125 127.641 15.2552 127.703 15.2344C127.776 15.2031 127.833 15.1354 127.875 15.0312C128.031 14.9583 128.172 14.8438 128.297 14.6875C128.411 14.5417 128.573 14.4375 128.781 14.375C128.99 14.3542 129.125 14.3542 129.188 14.375C129.25 14.3958 129.344 14.4688 129.469 14.5938C129.573 14.6667 129.651 14.7708 129.703 14.9062C129.755 15.0417 129.833 15.1458 129.938 15.2188C130.125 15.5938 130.271 15.8229 130.375 15.9062C130.448 16.0729 130.464 16.2396 130.422 16.4062L130.281 16.9062C130.271 17.0312 130.26 17.1354 130.25 17.2188C130.24 17.2917 130.229 17.349 130.219 17.3906C130.208 17.4323 130.198 17.474 130.188 17.5156C130.177 17.5573 130.167 17.6042 130.156 17.6562C130.031 18.3854 129.844 19.0938 129.594 19.7812C129.604 19.9271 129.646 20.0781 129.719 20.2344C129.781 20.3594 129.802 20.5417 129.781 20.7812C129.906 20.8021 130.026 20.8021 130.141 20.7812C130.255 20.7604 130.354 20.7396 130.438 20.7188C130.875 20.5417 131.292 20.3125 131.688 20.0312C131.958 19.8229 132.24 19.6198 132.531 19.4219C132.833 19.2135 133.115 19.0104 133.375 18.8125C133.469 18.7396 133.552 18.6615 133.625 18.5781C133.698 18.4948 133.781 18.4167 133.875 18.3438C134.083 18.1771 134.286 18.0417 134.484 17.9375C134.682 17.8333 134.885 17.7292 135.094 17.625C135.198 17.5625 135.281 17.5 135.344 17.4375C135.406 17.375 135.479 17.3021 135.562 17.2188C135.667 17.1146 135.812 17.0052 136 16.8906C136.188 16.776 136.365 16.6771 136.531 16.5938C136.823 16.5833 136.974 16.6302 136.984 16.7344L137.031 17.0312C136.76 17.2188 136.505 17.4115 136.266 17.6094C136.026 17.8073 135.781 18.0104 135.531 18.2188C135.469 18.2604 135.411 18.2969 135.359 18.3281C135.307 18.3594 135.229 18.3958 135.125 18.4375C135.042 18.5 134.984 18.5573 134.953 18.6094C134.922 18.6615 134.854 18.7188 134.75 18.7812C134.688 18.8333 134.625 18.8854 134.562 18.9375C134.5 18.9792 134.438 19.026 134.375 19.0781C134.25 19.1719 134.135 19.2708 134.031 19.375C133.885 19.4792 133.75 19.5833 133.625 19.6875C133.5 19.7917 133.385 19.8958 133.281 20C133.167 20.1146 133.073 20.2292 133 20.3438C132.938 20.4479 132.833 20.5625 132.688 20.6875C132.583 20.7292 132.495 20.7812 132.422 20.8438L132.188 21.0312C132.146 21.1562 132.115 21.2656 132.094 21.3594C132.083 21.4427 132.021 21.5417 131.906 21.6562C131.74 21.8021 131.641 21.901 131.609 21.9531C131.578 22.0052 131.531 22.0625 131.469 22.125C131.427 22.1562 131.354 22.1927 131.25 22.2344C131.208 22.2448 131.167 22.2604 131.125 22.2812C131.083 22.3021 131.042 22.3229 131 22.3438C130.906 22.3958 130.812 22.4688 130.719 22.5625C130.677 22.6042 130.63 22.6458 130.578 22.6875C130.536 22.7292 130.49 22.7708 130.438 22.8125C130.354 22.8646 130.276 22.9115 130.203 22.9531C130.13 22.9948 130.068 23.0365 130.016 23.0781C129.932 23.1406 129.781 23.1979 129.562 23.25C129.344 23.3958 129.188 23.4635 129.094 23.4531C129.031 23.4427 128.927 23.4479 128.781 23.4688C128.729 23.4896 128.682 23.4688 128.641 23.4062C128.599 23.3438 128.542 23.3125 128.469 23.3125C128.333 23.1875 128.229 23.1354 128.156 23.1562C128.073 23.1771 128 23.1667 127.938 23.125C127.729 22.8854 127.625 22.7083 127.625 22.5938C127.625 22.5312 127.62 22.4688 127.609 22.4062C127.609 22.3333 127.604 22.2604 127.594 22.1875C127.552 21.875 127.51 21.5573 127.469 21.2344C127.427 20.9115 127.396 20.5729 127.375 20.2188C127.375 20.0729 127.391 19.9375 127.422 19.8125C127.464 19.6562 127.49 19.5208 127.5 19.4062C127.5 19.3542 127.49 19.276 127.469 19.1719C127.448 19.0677 127.438 19 127.438 18.9688C127.458 18.7917 127.49 18.6354 127.531 18.5C127.573 18.375 127.583 18.2292 127.562 18.0625C127.427 18.2188 127.307 18.3542 127.203 18.4688C127.099 18.5729 127.01 18.6615 126.938 18.7344C126.865 18.8073 126.792 18.8802 126.719 18.9531C126.656 19.026 126.594 19.1042 126.531 19.1875C126.208 19.375 125.938 19.5573 125.719 19.7344C125.49 19.9219 125.208 20.0729 124.875 20.1875C124.729 20.3333 124.583 20.474 124.438 20.6094C124.302 20.7344 124.167 20.8542 124.031 20.9688C123.896 21.0833 123.755 21.2083 123.609 21.3438C123.474 21.4688 123.333 21.6042 123.188 21.75C122.844 22.1979 122.469 22.5312 122.062 22.75C121.917 22.7917 121.802 22.8177 121.719 22.8281C121.635 22.8385 121.552 22.8125 121.469 22.75C121.031 22.5 120.771 22.1771 120.688 21.7812C120.604 21.3854 120.615 20.9479 120.719 20.4688C120.625 20.2708 120.635 19.9896 120.75 19.625C120.875 19.25 120.896 18.9792 120.812 18.8125C120.844 18.6562 120.88 18.5 120.922 18.3438C120.964 18.1771 121.01 18.0104 121.062 17.8438C121.115 17.6771 121.156 17.5156 121.188 17.3594C121.229 17.1927 121.26 17.0312 121.281 16.875C121.385 16.7292 121.401 16.6146 121.328 16.5312C121.255 16.4479 121.188 16.375 121.125 16.3125C120.771 16.5208 120.432 16.7656 120.109 17.0469C119.786 17.3281 119.458 17.6146 119.125 17.9062C119.042 17.9792 118.958 18.0521 118.875 18.125C118.802 18.1875 118.724 18.2552 118.641 18.3281C118.568 18.401 118.49 18.474 118.406 18.5469C118.323 18.6094 118.24 18.6771 118.156 18.75L117.656 19.1719C117.479 19.3177 117.333 19.4688 117.219 19.625C117.083 19.8125 116.974 19.9375 116.891 20L116.688 20.1562C116.594 20.2083 116.51 20.2708 116.438 20.3438C116.396 20.3854 116.333 20.4375 116.25 20.5C116.188 20.5521 116.104 20.599 116 20.6406L115.719 20.75C115.594 20.8333 115.464 20.9427 115.328 21.0781C115.193 21.2135 115.073 21.3333 114.969 21.4375C114.885 21.5208 114.792 21.6042 114.688 21.6875C114.573 21.7812 114.49 21.8646 114.438 21.9375C114.312 22.1146 114.161 22.3021 113.984 22.5C113.911 22.5833 113.833 22.6719 113.75 22.7656C113.677 22.849 113.604 22.9375 113.531 23.0312C113.521 23.125 113.464 23.224 113.359 23.3281L113.062 23.625C113.021 23.6667 112.979 23.7135 112.938 23.7656C112.896 23.8073 112.849 23.8542 112.797 23.9062C112.714 24 112.615 24.0729 112.5 24.125L112.281 24.1719C112.167 24.1927 112.083 24.2188 112.031 24.25C111.969 24.2708 111.906 24.2917 111.844 24.3125C111.771 24.3438 111.698 24.375 111.625 24.4062C111.49 24.4688 111.333 24.4896 111.156 24.4688L110.781 24.4219C110.688 24.4115 110.583 24.3646 110.469 24.2812C110.469 24.1146 110.417 24 110.312 23.9375C110.365 23.6562 110.432 23.4062 110.516 23.1875C110.599 22.9583 110.667 22.7188 110.719 22.4688C110.875 22.25 110.995 22.0156 111.078 21.7656C111.161 21.5156 111.271 21.2604 111.406 21C111.5 20.7396 111.609 20.4688 111.734 20.1875L112.062 19.4375C112.104 19.3125 112.141 19.1927 112.172 19.0781C112.214 18.9635 112.25 18.8542 112.281 18.75C112.344 18.5312 112.427 18.3438 112.531 18.1875C112.667 17.9688 112.74 17.8125 112.75 17.7188C112.979 17.4479 113.094 17.1667 113.094 16.875C113.208 16.75 113.292 16.5729 113.344 16.3438C113.396 16.125 113.458 15.9271 113.531 15.75C113.573 15.6667 113.609 15.5938 113.641 15.5312C113.672 15.4688 113.698 15.3854 113.719 15.2812C113.74 15.1458 113.745 15.0469 113.734 14.9844C113.724 14.901 113.75 14.8021 113.812 14.6875C113.854 14.6354 113.896 14.5885 113.938 14.5469C113.979 14.5052 114.021 14.4635 114.062 14.4219C114.104 14.3802 114.146 14.3385 114.188 14.2969C114.229 14.2552 114.271 14.2083 114.312 14.1562C114.406 14.1458 114.479 14.0938 114.531 14C114.583 13.9167 114.646 13.8542 114.719 13.8125C114.948 13.7396 115.078 13.6875 115.109 13.6562C115.151 13.6146 115.177 13.5938 115.188 13.5938L115.656 13.3594C115.688 13.3385 115.719 13.3229 115.75 13.3125C115.792 13.2917 115.833 13.2708 115.875 13.25C115.917 13.2292 115.953 13.2135 115.984 13.2031C116.016 13.1927 116.042 13.1823 116.062 13.1719C116.083 13.1615 116.109 13.151 116.141 13.1406C116.172 13.1302 116.208 13.1146 116.25 13.0938C116.302 13.0417 116.385 12.9792 116.5 12.9062C116.615 12.8333 116.698 12.7708 116.75 12.7188C116.958 12.8021 117.135 12.9323 117.281 13.1094C117.427 13.2865 117.469 13.5208 117.406 13.8125C117.385 13.9167 117.354 14.0156 117.312 14.1094C117.271 14.2031 117.229 14.2917 117.188 14.375C117.156 14.4479 117.13 14.5469 117.109 14.6719C117.089 14.7969 117.062 14.8854 117.031 14.9375C116.885 15.1979 116.792 15.3906 116.75 15.5156C116.698 15.6719 116.646 15.8021 116.594 15.9062C116.51 16.0417 116.438 16.1771 116.375 16.3125C116.312 16.4792 116.255 16.6146 116.203 16.7188C116.151 16.8229 116.073 16.9271 115.969 17.0312C115.885 17.1354 115.823 17.2083 115.781 17.25C115.708 17.3229 115.646 17.4062 115.594 17.5C115.521 17.5938 115.448 17.6927 115.375 17.7969C115.302 17.901 115.229 18.0104 115.156 18.125C115.021 18.3438 114.865 18.5521 114.688 18.75L114.359 19.375C114.255 19.5729 114.146 19.7917 114.031 20.0312ZM142.281 20.375C142.635 20.2708 142.99 20.1771 143.344 20.0938C143.698 20.0104 144.062 19.9479 144.438 19.9062C144.771 19.8854 145.115 19.8229 145.469 19.7188L145.906 19.5781C145.979 19.5573 146.047 19.5365 146.109 19.5156C146.182 19.4844 146.25 19.4583 146.312 19.4375C146.458 19.3958 146.599 19.3594 146.734 19.3281C146.87 19.2969 146.99 19.2708 147.094 19.25C147.26 19.375 147.339 19.4427 147.328 19.4531C147.318 19.4635 147.333 19.4896 147.375 19.5312L147.125 19.9688C147.042 20.0312 146.943 20.0729 146.828 20.0938C146.724 20.1042 146.615 20.1354 146.5 20.1875C146.396 20.25 146.333 20.2917 146.312 20.3125C146.26 20.3646 146.219 20.3958 146.188 20.4062C146.094 20.4271 146.026 20.4219 145.984 20.3906C145.922 20.349 145.875 20.3229 145.844 20.3125C145.333 20.6458 144.76 20.875 144.125 21C143.458 21.125 142.844 21.2812 142.281 21.4688C142.073 21.5729 141.865 21.6823 141.656 21.7969C141.448 21.9115 141.229 22.0417 141 22.1875C140.833 22.5208 140.599 22.8438 140.297 23.1562C139.995 23.4688 139.688 23.7396 139.375 23.9688C139.292 24.0312 139.224 24.0781 139.172 24.1094C139.13 24.1302 139.094 24.151 139.062 24.1719C139.042 24.1927 139.021 24.2083 139 24.2188C138.927 24.25 138.849 24.276 138.766 24.2969C138.682 24.3281 138.599 24.3542 138.516 24.375C138.432 24.3958 138.349 24.4167 138.266 24.4375C138.182 24.4583 138.104 24.4792 138.031 24.5C137.906 24.625 137.802 24.6875 137.719 24.6875C137.583 24.7083 137.458 24.6875 137.344 24.625C137.208 24.5521 137.073 24.5104 136.938 24.5C136.833 24.3125 136.771 24.1823 136.75 24.1094C136.729 24.0573 136.688 24.0208 136.625 24C136.573 23.7917 136.453 23.5938 136.266 23.4062C136.089 23.2292 135.948 23.0312 135.844 22.8125C135.802 22.7292 135.766 22.6406 135.734 22.5469C135.703 22.4531 135.688 22.3646 135.688 22.2812C135.708 22.0521 135.802 21.8542 135.969 21.6875C136.135 21.5208 136.302 21.3854 136.469 21.2812C136.594 21.4688 136.703 21.5417 136.797 21.5C136.891 21.4583 136.969 21.4167 137.031 21.375C137.104 21.3438 137.193 21.3177 137.297 21.2969L137.5 21.25C137.812 21.1771 138.146 21.1146 138.5 21.0625C138.729 21.0417 138.906 21.0469 139.031 21.0781C139.188 21.1094 139.354 21.1042 139.531 21.0625C139.635 20.875 139.766 20.6979 139.922 20.5312C140.078 20.3646 140.229 20.2083 140.375 20.0625C140.479 19.8125 140.615 19.5417 140.781 19.25C140.948 18.9583 141.115 18.6771 141.281 18.4062L141.562 17.8438C141.604 17.8021 141.641 17.7604 141.672 17.7188C141.703 17.6771 141.74 17.6146 141.781 17.5312C141.823 17.3646 141.839 17.2031 141.828 17.0469C141.818 16.8906 141.802 16.7188 141.781 16.5312C141.583 16.4167 141.385 16.2604 141.188 16.0625C141.062 16.1146 140.943 16.1146 140.828 16.0625C140.714 16.0104 140.594 16.0104 140.469 16.0625C140.406 16.0729 140.344 16.1042 140.281 16.1562C140.25 16.1771 140.214 16.1979 140.172 16.2188C140.141 16.2396 140.104 16.2604 140.062 16.2812C139.875 16.3854 139.672 16.4792 139.453 16.5625C139.234 16.6354 139.062 16.7604 138.938 16.9375C138.823 17.0521 138.719 17.1615 138.625 17.2656C138.531 17.3594 138.448 17.4479 138.375 17.5312C138.302 17.6146 138.224 17.7031 138.141 17.7969C138.068 17.8802 137.99 17.9688 137.906 18.0625C137.802 18.1458 137.714 18.2188 137.641 18.2812C137.578 18.3333 137.536 18.3802 137.516 18.4219C137.484 18.474 137.438 18.5312 137.375 18.5938C137.312 18.6562 137.25 18.7188 137.188 18.7812C137.125 18.8333 137.062 18.8854 137 18.9375C136.875 19.0417 136.76 19.1562 136.656 19.2812C136.594 19.3646 136.536 19.4219 136.484 19.4531C136.432 19.4844 136.375 19.5417 136.312 19.625C136.188 19.7604 136.078 19.9167 135.984 20.0938C135.901 20.25 135.802 20.4167 135.688 20.5938L135.062 21.5938C134.948 21.9167 134.823 22.2396 134.688 22.5625C134.562 22.875 134.427 23.1823 134.281 23.4844C134.135 23.7865 133.995 24.099 133.859 24.4219C133.734 24.7448 133.615 25.0729 133.5 25.4062C133.458 25.625 133.427 25.7448 133.406 25.7656C133.385 25.7865 133.375 25.8125 133.375 25.8438C133.354 25.9271 133.339 26.0052 133.328 26.0781C133.307 26.151 133.286 26.224 133.266 26.2969C133.234 26.4323 133.188 26.5625 133.125 26.6875C133.083 26.8542 133.021 27.026 132.938 27.2031C132.854 27.3802 132.771 27.5521 132.688 27.7188C132.552 28.0521 132.427 28.3698 132.312 28.6719C132.188 29.0156 132.062 29.3438 131.938 29.6562C131.885 29.7708 131.839 29.8854 131.797 30C131.755 30.1146 131.714 30.2292 131.672 30.3438L131.438 31.0312C131.385 31.1458 131.349 31.2708 131.328 31.4062C131.318 31.4688 131.307 31.5312 131.297 31.5938C131.286 31.6562 131.271 31.7188 131.25 31.7812C131.188 32 131.109 32.2396 131.016 32.5C130.911 32.7708 130.854 33.0104 130.844 33.2188C130.542 33.5104 130.333 33.7604 130.219 33.9688C129.99 34.1979 129.75 34.401 129.5 34.5781C129.25 34.7552 128.969 34.9062 128.656 35.0312C128.458 35.0312 128.203 35.0104 127.891 34.9688C127.568 34.9375 127.406 34.8021 127.406 34.5625C127.385 34.375 127.391 34.1354 127.422 33.8438C127.453 33.5521 127.521 33.3021 127.625 33.0938C127.708 32.8646 127.797 32.6458 127.891 32.4375C127.984 32.2292 128.073 32.0521 128.156 31.9062C128.281 31.3646 128.438 30.9062 128.625 30.5312C128.677 30.4167 128.729 30.3073 128.781 30.2031C128.833 30.099 128.885 29.9948 128.938 29.8906C129.052 29.6719 129.146 29.4583 129.219 29.25C129.271 29.1042 129.302 28.9479 129.312 28.7812C129.323 28.6146 129.385 28.4688 129.5 28.3438C129.646 27.9896 129.828 27.6562 130.047 27.3438C130.266 27.0312 130.49 26.7188 130.719 26.4062C130.833 26.2292 130.927 26.0573 131 25.8906C131.083 25.7135 131.177 25.5417 131.281 25.375C131.469 25.0521 131.625 24.7188 131.75 24.375C131.875 24.0208 132.052 23.6979 132.281 23.4062C132.333 23.2917 132.385 23.1823 132.438 23.0781C132.49 22.974 132.542 22.8698 132.594 22.7656L132.906 22.1562C132.938 22.0833 132.974 21.974 133.016 21.8281C133.057 21.6823 133.094 21.5729 133.125 21.5C133.188 21.4062 133.25 21.3125 133.312 21.2188C133.365 21.1146 133.417 21.0104 133.469 20.9062C133.656 20.4896 133.849 20.0781 134.047 19.6719C134.245 19.2656 134.469 18.8646 134.719 18.4688C134.729 18.25 134.786 18.0417 134.891 17.8438C134.943 17.75 134.99 17.651 135.031 17.5469C135.073 17.4427 135.115 17.3333 135.156 17.2188C135.219 17.0417 135.266 16.8646 135.297 16.6875C135.339 16.4688 135.375 16.2917 135.406 16.1562C135.469 15.9688 135.542 15.8229 135.625 15.7188C135.74 15.5729 135.833 15.4167 135.906 15.25C135.927 15.2188 135.948 15.1875 135.969 15.1562C135.99 15.125 136.01 15.0885 136.031 15.0469C136.052 15.0052 136.073 14.9688 136.094 14.9375C136.115 14.9062 136.135 14.875 136.156 14.8438C136.219 14.7188 136.266 14.6094 136.297 14.5156C136.318 14.4427 136.375 14.3438 136.469 14.2188C136.719 13.9271 136.88 13.7656 136.953 13.7344C137.005 13.7135 137.057 13.6875 137.109 13.6562C137.161 13.6146 137.219 13.5729 137.281 13.5312C137.698 13.5104 137.958 13.6094 138.062 13.8281C138.167 14.0469 138.26 14.2708 138.344 14.5C138.302 14.6667 138.26 14.8333 138.219 15C138.177 15.1667 138.135 15.3646 138.094 15.5938C138.177 15.5208 138.26 15.4479 138.344 15.375C138.438 15.2917 138.536 15.2083 138.641 15.125C138.849 14.9479 139.031 14.7812 139.188 14.625C139.365 14.5208 139.536 14.4115 139.703 14.2969C139.88 14.1823 140.052 14.0677 140.219 13.9531C140.552 13.7135 140.927 13.5104 141.344 13.3438C141.448 13.3021 141.557 13.2604 141.672 13.2188C141.786 13.1771 141.896 13.1562 142 13.1562C142.094 13.1562 142.182 13.1823 142.266 13.2344C142.37 13.2969 142.469 13.3333 142.562 13.3438C142.677 13.4583 142.797 13.5573 142.922 13.6406C143.036 13.7135 143.156 13.8229 143.281 13.9688C143.365 14.0729 143.427 14.1979 143.469 14.3438C143.49 14.4167 143.51 14.4896 143.531 14.5625C143.552 14.6354 143.573 14.7083 143.594 14.7812C143.615 14.8542 143.635 14.9271 143.656 15C143.688 15.0729 143.724 15.1458 143.766 15.2188C143.839 15.3542 143.885 15.4896 143.906 15.625C143.906 15.6875 143.896 15.7917 143.875 15.9375C143.854 16.0833 143.844 16.1875 143.844 16.25C143.844 16.3333 143.849 16.3958 143.859 16.4375C143.87 16.4792 143.875 16.5625 143.875 16.6875C143.865 16.8854 143.781 17.1458 143.625 17.4688L143.25 18.25C143.208 18.3333 143.167 18.4167 143.125 18.5C143.094 18.5729 143.062 18.6458 143.031 18.7188L142.812 19.1875C142.708 19.4167 142.615 19.625 142.531 19.8125C142.448 20 142.365 20.1875 142.281 20.375ZM155.625 6.75C156.083 6.82292 156.479 6.86979 156.812 6.89062C157.156 6.91146 157.531 6.88542 157.938 6.8125L159.172 6.64062C159.505 6.59896 159.906 6.55208 160.375 6.5C160.5 6.48958 160.63 6.48958 160.766 6.5C160.839 6.51042 160.906 6.52083 160.969 6.53125C161.031 6.53125 161.094 6.53125 161.156 6.53125C161.427 6.53125 161.693 6.52083 161.953 6.5C162.214 6.47917 162.458 6.45833 162.688 6.4375C162.729 6.42708 162.766 6.41667 162.797 6.40625C162.839 6.39583 162.875 6.38542 162.906 6.375C162.969 6.35417 163.031 6.35417 163.094 6.375C163.188 6.375 163.281 6.375 163.375 6.375C163.469 6.375 163.562 6.36979 163.656 6.35938C163.844 6.34896 164.01 6.41667 164.156 6.5625C164.219 6.77083 164.24 6.88542 164.219 6.90625C164.188 6.9375 164.167 6.96875 164.156 7C164.135 7.27083 164.099 7.40625 164.047 7.40625C163.995 7.40625 163.969 7.42708 163.969 7.46875C163.802 7.51042 163.661 7.54688 163.547 7.57812C163.432 7.60938 163.344 7.67708 163.281 7.78125C162.927 7.85417 162.599 7.86979 162.297 7.82812C161.995 7.77604 161.688 7.82292 161.375 7.96875C161.219 8.04167 161.068 8.11979 160.922 8.20312C160.776 8.29688 160.583 8.30208 160.344 8.21875C160.135 8.21875 159.896 8.22917 159.625 8.25C159.354 8.27083 159.094 8.29167 158.844 8.3125C158.49 8.34375 158.089 8.38021 157.641 8.42188C157.203 8.45312 156.865 8.47396 156.625 8.48438C156.396 8.49479 156.068 8.51042 155.641 8.53125C155.214 8.55208 154.833 8.5625 154.5 8.5625C154.333 8.69792 154.224 8.875 154.172 9.09375C154.12 9.30208 154.01 9.46875 153.844 9.59375C153.656 10.0104 153.521 10.276 153.438 10.3906C153.344 10.5156 153.271 10.6771 153.219 10.875C152.927 11.25 152.661 11.6406 152.422 12.0469C152.203 12.4219 151.927 12.8021 151.594 13.1875C151.552 13.4167 151.474 13.6198 151.359 13.7969C151.255 13.9635 151.177 14.1979 151.125 14.5C150.906 14.7917 150.74 15.1354 150.625 15.5312C150.573 15.7188 150.51 15.9115 150.438 16.1094C150.375 16.3073 150.302 16.5104 150.219 16.7188C150.177 16.8854 150.13 17.0469 150.078 17.2031C150.026 17.3594 149.969 17.5208 149.906 17.6875C149.833 17.875 149.734 18.0677 149.609 18.2656C149.557 18.349 149.5 18.4427 149.438 18.5469C149.385 18.6406 149.333 18.7396 149.281 18.8438C149.24 18.8854 149.219 18.9427 149.219 19.0156C149.219 19.0677 149.208 19.125 149.188 19.1875C149.156 19.2604 149.125 19.3333 149.094 19.4062C149.062 19.4688 149.031 19.526 149 19.5781C148.958 19.651 148.906 19.7604 148.844 19.9062C148.812 19.9792 148.786 20.0885 148.766 20.2344C148.745 20.3802 148.719 20.4896 148.688 20.5625C148.677 20.5938 148.667 20.625 148.656 20.6562C148.646 20.6875 148.635 20.7135 148.625 20.7344C148.615 20.7552 148.604 20.7812 148.594 20.8125C148.583 20.8438 148.573 20.875 148.562 20.9062C148.5 21.1979 148.5 21.3958 148.562 21.5C148.625 21.6042 148.677 21.7083 148.719 21.8125C148.74 21.875 148.76 21.9323 148.781 21.9844C148.802 22.0365 148.823 22.0885 148.844 22.1406C148.896 22.2344 148.927 22.3333 148.938 22.4375C148.99 22.4583 149.042 22.4792 149.094 22.5C149.146 22.5208 149.193 22.5417 149.234 22.5625C149.318 22.6042 149.417 22.625 149.531 22.625C149.667 22.6458 149.802 22.5885 149.938 22.4531C150.083 22.3073 150.208 22.2292 150.312 22.2188C150.438 22.1771 150.578 22.1562 150.734 22.1562C150.87 22.1562 150.99 22.125 151.094 22.0625C151.156 22.0104 151.214 21.9583 151.266 21.9062C151.318 21.8542 151.365 21.8021 151.406 21.75C151.469 21.6562 151.583 21.5833 151.75 21.5312C152.083 21.4479 152.26 21.3802 152.281 21.3281C152.292 21.2865 152.365 21.2083 152.5 21.0938C152.573 21.0417 152.641 20.9896 152.703 20.9375C152.776 20.8854 152.839 20.8385 152.891 20.7969C152.974 20.724 153.115 20.625 153.312 20.5C153.521 20.3958 153.641 20.3333 153.672 20.3125C153.703 20.2917 153.792 20.2188 153.938 20.0938C154.042 20.0417 154.135 19.9896 154.219 19.9375C154.312 19.875 154.396 19.8125 154.469 19.75C154.583 19.6458 154.75 19.5312 154.969 19.4062C155.219 19.3021 155.354 19.2396 155.375 19.2188C155.406 19.1875 155.427 19.151 155.438 19.1094C155.448 19.0677 155.562 18.9792 155.781 18.8438C155.854 18.6875 155.948 18.5521 156.062 18.4375C156.115 18.3854 156.172 18.3281 156.234 18.2656C156.297 18.1927 156.365 18.1146 156.438 18.0312C156.573 17.875 156.703 17.75 156.828 17.6562C156.974 17.5417 157.094 17.4375 157.188 17.3438C157.229 17.3125 157.281 17.2656 157.344 17.2031C157.406 17.1406 157.479 17.1042 157.562 17.0938C157.625 17.0417 157.677 16.9948 157.719 16.9531C157.771 16.9115 157.818 16.8698 157.859 16.8281C157.901 16.7865 157.948 16.7396 158 16.6875C158.062 16.6354 158.135 16.5729 158.219 16.5L158.375 16.3438C158.448 16.2708 158.5 16.2292 158.531 16.2188C158.625 16.2188 158.693 16.25 158.734 16.3125C158.786 16.375 158.854 16.4062 158.938 16.4062C158.927 16.5417 158.917 16.651 158.906 16.7344C158.906 16.8177 158.906 16.8802 158.906 16.9219C158.906 17.0052 158.885 17.0833 158.844 17.1562C158.719 17.3542 158.578 17.4583 158.422 17.4688C158.266 17.4896 158.146 17.6042 158.062 17.8125C158 17.7708 157.922 17.7604 157.828 17.7812C157.734 17.8021 157.667 17.8333 157.625 17.875C157.667 17.9479 157.688 18.0208 157.688 18.0938C157.688 18.1354 157.698 18.2083 157.719 18.3125C157.333 18.6979 157.083 19 156.969 19.2188C156.708 19.4896 156.573 19.6406 156.562 19.6719L156.531 19.7188L156.281 19.9688C155.99 20.1979 155.771 20.4167 155.625 20.625C155.49 20.8229 155.271 21.0104 154.969 21.1875C154.74 21.3542 154.583 21.4792 154.5 21.5625C154.458 21.6042 154.406 21.6562 154.344 21.7188C154.281 21.7708 154.208 21.8333 154.125 21.9062C154.073 21.9583 153.995 22.0469 153.891 22.1719C153.786 22.2969 153.698 22.3854 153.625 22.4375C153.49 22.5417 153.349 22.6354 153.203 22.7188C153.089 22.7812 152.969 22.8854 152.844 23.0312C152.542 23.1667 152.318 23.3333 152.172 23.5312C152.036 23.7083 151.833 23.8854 151.562 24.0625C151.375 24.1875 151.12 24.3438 150.797 24.5312C150.474 24.7188 150.198 24.8542 149.969 24.9375C149.938 24.9479 149.906 24.9583 149.875 24.9688C149.844 24.9792 149.818 24.9896 149.797 25C149.776 25.0104 149.75 25.0208 149.719 25.0312C149.688 25.0417 149.656 25.0521 149.625 25.0625C149.458 24.9583 149.297 24.8542 149.141 24.75C148.984 24.6458 148.854 24.5 148.75 24.3125C148.552 24.1667 148.401 24.0625 148.297 24C148.172 23.9271 148.062 23.8438 147.969 23.75C147.865 23.5729 147.755 23.3958 147.641 23.2188C147.526 23.0417 147.401 22.8646 147.266 22.6875C146.995 22.3229 146.792 21.9271 146.656 21.5C146.625 21.4479 146.599 21.3594 146.578 21.2344L146.531 20.9375C146.51 20.8542 146.49 20.776 146.469 20.7031C146.448 20.6302 146.427 20.5625 146.406 20.5C146.365 20.3958 146.354 20.2396 146.375 20.0312C146.375 19.8854 146.396 19.75 146.438 19.625C146.458 19.5521 146.479 19.4792 146.5 19.4062C146.521 19.3229 146.542 19.2396 146.562 19.1562C146.604 19.0208 146.651 18.8906 146.703 18.7656C146.755 18.6302 146.807 18.5 146.859 18.375C146.984 18.0938 147.073 17.8229 147.125 17.5625C147.25 17.125 147.385 16.7083 147.531 16.3125C147.562 16.2396 147.589 16.1406 147.609 16.0156C147.62 15.9219 147.677 15.8542 147.781 15.8125C147.865 15.3958 148 14.9948 148.188 14.6094C148.375 14.224 148.562 13.8542 148.75 13.5C148.865 13.2812 148.974 13.0625 149.078 12.8438C149.182 12.6146 149.286 12.3854 149.391 12.1562C149.495 11.9271 149.599 11.7031 149.703 11.4844C149.807 11.2552 149.917 11.0312 150.031 10.8125C150.042 10.5833 150.125 10.375 150.281 10.1875C150.292 9.97917 150.375 9.75521 150.531 9.51562C150.688 9.27604 150.792 9.05208 150.844 8.84375C150.615 8.78125 150.359 8.77604 150.078 8.82812C149.797 8.88021 149.552 8.92708 149.344 8.96875C148.969 8.97917 148.573 8.97917 148.156 8.96875C148.083 8.95833 148.01 8.94792 147.938 8.9375C147.875 8.91667 147.807 8.90104 147.734 8.89062C147.599 8.85938 147.469 8.84375 147.344 8.84375C147.156 8.85417 147.016 8.83854 146.922 8.79688C146.818 8.74479 146.719 8.73958 146.625 8.78125C146.333 8.53125 146.036 8.3125 145.734 8.125C145.422 7.9375 145.219 7.69792 145.125 7.40625C145.125 7.34375 145.156 7.29167 145.219 7.25C145.302 7.1875 145.354 7.14583 145.375 7.125C145.552 7.07292 145.74 7.05729 145.938 7.07812C146.135 7.08854 146.302 7.05208 146.438 6.96875C146.74 7.01042 147.047 6.98958 147.359 6.90625C147.641 6.82292 147.938 6.79167 148.25 6.8125C148.292 6.8125 148.354 6.82292 148.438 6.84375C148.521 6.86458 148.583 6.875 148.625 6.875C148.729 6.88542 148.818 6.88542 148.891 6.875C148.932 6.86458 148.974 6.85417 149.016 6.84375C149.057 6.83333 149.104 6.82292 149.156 6.8125C149.281 6.79167 149.417 6.79167 149.562 6.8125C149.708 6.83333 149.854 6.83333 150 6.8125C150.302 6.79167 150.63 6.81771 150.984 6.89062C151.37 6.96354 151.708 6.94792 152 6.84375C152.052 6.69792 152.104 6.55208 152.156 6.40625C152.219 6.25 152.286 6.09896 152.359 5.95312C152.505 5.65104 152.615 5.35417 152.688 5.0625C152.771 4.9375 152.854 4.79688 152.938 4.64062C153.021 4.48438 153.083 4.33333 153.125 4.1875L153.422 3.6875C153.464 3.625 153.505 3.5625 153.547 3.5C153.589 3.4375 153.635 3.375 153.688 3.3125C153.833 3.01042 153.943 2.72396 154.016 2.45312C154.057 2.30729 154.099 2.16146 154.141 2.01562C154.193 1.85938 154.25 1.69792 154.312 1.53125C154.448 1.38542 154.583 1.22396 154.719 1.04688C154.854 0.869792 154.99 0.677083 155.125 0.46875C155.281 0.489583 155.401 0.447917 155.484 0.34375C155.578 0.239583 155.719 0.25 155.906 0.375C155.906 0.4375 155.932 0.494792 155.984 0.546875C156.036 0.598958 156.042 0.677083 156 0.78125C156.208 0.989583 156.344 1.17708 156.406 1.34375C156.448 1.51042 156.432 1.70312 156.359 1.92188C156.286 2.14062 156.302 2.34375 156.406 2.53125C156.448 2.625 156.458 2.72396 156.438 2.82812C156.417 2.94271 156.427 3.03125 156.469 3.09375C156.521 3.20833 156.578 3.3125 156.641 3.40625C156.714 3.51042 156.75 3.64583 156.75 3.8125C156.75 3.875 156.734 3.95312 156.703 4.04688C156.672 4.14062 156.635 4.23958 156.594 4.34375C156.521 4.65625 156.458 4.875 156.406 5C156.385 5.0625 156.365 5.13021 156.344 5.20312C156.323 5.26562 156.302 5.33333 156.281 5.40625C156.135 5.58333 156.062 5.69271 156.062 5.73438C156.062 5.76562 156.052 5.8125 156.031 5.875C156 5.9375 155.969 6.01042 155.938 6.09375C155.906 6.16667 155.87 6.24479 155.828 6.32812C155.786 6.41146 155.75 6.48958 155.719 6.5625C155.688 6.63542 155.656 6.69792 155.625 6.75Z" fill="#BD2B5F"/>
</svg>
